<svg xmlns="http://www.w3.org/2000/svg" width="1191.19" height="748.625" viewBox="0 0 1191.19 748.625">
  <g id="Grupo_138281" data-name="Grupo 138281" transform="translate(-202.271 -498)">
    <g id="Grupo_138279" data-name="Grupo 138279">
      <path id="Trazado_161929" data-name="Trazado 161929" d="M399.691,469.443a1.279,1.279,0,0,0-2.558,0Zm-152.225,78.87a1.281,1.281,0,0,0,1.809,0l8.138-8.138a1.279,1.279,0,1,0-1.809-1.809l-7.234,7.234-7.234-7.234a1.279,1.279,0,0,0-1.809,1.809Zm149.668-78.87v25.109h2.558V469.443Zm-19.181,44.291H268.831v2.558H377.952Zm-130.86,21.739v11.935h2.558V535.473Zm21.739-21.739a21.739,21.739,0,0,0-21.739,21.739h2.558a19.182,19.182,0,0,1,19.182-19.181Zm128.3-19.181a19.182,19.182,0,0,1-19.181,19.181v2.558a21.739,21.739,0,0,0,21.739-21.739Z" transform="translate(400.309 120.846)" fill="#f7ca18"/>
      <path id="Trazado_198513" data-name="Trazado 198513" d="M247.466,548.313a1.281,1.281,0,0,0,1.809,0l8.138-8.138a1.279,1.279,0,1,0-1.809-1.809l-7.234,7.234-7.234-7.234a1.279,1.279,0,0,0-1.809,1.809Zm-.374-100.149v99.244h2.558V448.164Zm0,0h0Z" transform="translate(1048.164 297.13) rotate(90)" fill="#f7ca18"/>
      <path id="Trazado_197791" data-name="Trazado 197791" d="M247.466,548.313a1.281,1.281,0,0,0,1.809,0l8.138-8.138a1.279,1.279,0,1,0-1.809-1.809l-7.234,7.234-7.234-7.234a1.279,1.279,0,0,0-1.809,1.809Zm354.328-34.662-332.963.083v2.558l332.963-.083Zm-354.7,21.822v11.935h2.558V535.473Zm21.739-21.739a21.739,21.739,0,0,0-21.739,21.739h2.558a19.182,19.182,0,0,1,19.182-19.181Zm332.963-.083v0Z" transform="translate(83.206 120.846)" fill="#f7ca18"/>
      <path id="Trazado_198509" data-name="Trazado 198509" d="M547.574,513.734H493.595v2.558h53.979Zm-53.979,0v0Zm53.979,0v2.558C559.58,516.292,558.167,513.734,547.574,513.734Z" transform="translate(-182.854 1268.563) rotate(-90)" fill="#f7ca18"/>
      <path id="Trazado_198510" data-name="Trazado 198510" d="M547.574,513.734H493.595v2.558h53.979Zm-53.979,0v0Zm53.979,0v2.558C559.58,516.292,558.167,513.734,547.574,513.734Z" transform="translate(133.55 1268.563) rotate(-90)" fill="#f7ca18"/>
      <path id="Trazado_198511" data-name="Trazado 198511" d="M547.574,513.734H493.595v2.558h53.979Zm-53.979,0v0Zm53.979,0v2.558C559.58,516.292,558.167,513.734,547.574,513.734Z" transform="translate(434.745 1268.563) rotate(-90)" fill="#f7ca18"/>
      <path id="Trazado_198512" data-name="Trazado 198512" d="M547.574,513.734H493.595v2.558h53.979Zm-53.979,0v0Zm53.979,0v2.558C559.58,516.292,558.167,513.734,547.574,513.734Z" transform="translate(751.117 1268.563) rotate(-90)" fill="#f7ca18"/>
      <path id="Trazado_197792" data-name="Trazado 197792" d="M238.954,469.443a1.279,1.279,0,0,1,2.558,0Zm152.225,78.87a1.281,1.281,0,0,1-1.809,0l-8.138-8.138a1.279,1.279,0,0,1,1.809-1.809l7.234,7.234,7.234-7.234a1.279,1.279,0,0,1,1.809,1.809Zm-149.668-78.87v25.11h-2.558v-25.11Zm19.182,44.291H369.815v2.558H260.693Zm130.86,21.739v11.935H389V535.473Zm-21.739-21.739a21.739,21.739,0,0,1,21.739,21.739H389a19.182,19.182,0,0,0-19.182-19.181Zm-128.3-19.181a19.182,19.182,0,0,0,19.182,19.181v2.558a21.739,21.739,0,0,1-21.739-21.739Z" transform="translate(559.046 120.846)" fill="#f7ca18"/>
      <path id="Trazado_197793" data-name="Trazado 197793" d="M476.594,548.313a1.281,1.281,0,0,1-1.809,0l-8.138-8.138a1.279,1.279,0,0,1,1.809-1.809l7.234,7.234,7.234-7.234a1.279,1.279,0,1,1,1.809,1.809ZM127.625,513.626l327.6.108v2.558l-327.6-.108Zm349.344,21.847v11.935h-2.558V535.473Zm-21.739-21.739a21.739,21.739,0,0,1,21.739,21.739h-2.558a19.182,19.182,0,0,0-19.182-19.181Zm-327.6-.108v0Z" transform="translate(787.375 120.846)" fill="#f7ca18"/>
      <rect id="Rectángulo_41671" data-name="Rectángulo 41671" width="190" height="46" rx="6" transform="translate(237.16 677.533)" fill="#f7ca18"/>
      <rect id="Rectángulo_43531" data-name="Rectángulo 43531" width="250.172" height="225" rx="6" transform="translate(207.074 1021.625)" fill="#f7ca18"/>
      <rect id="Rectángulo_43532" data-name="Rectángulo 43532" width="209.172" height="148" rx="6" transform="translate(542.698 1021.625)" fill="#f7ca18"/>
      <rect id="Rectángulo_43533" data-name="Rectángulo 43533" width="244.172" height="148" rx="6" transform="translate(828.95 1021.625)" fill="#f7ca18"/>
      <rect id="Rectángulo_43534" data-name="Rectángulo 43534" width="205.595" height="148" rx="6" transform="translate(1162.055 1021.625)" fill="#f7ca18"/>
      <rect id="Rectángulo_42010" data-name="Rectángulo 42010" width="148.595" height="46" rx="6" transform="translate(574 677.533)" fill="#f7ca18"/>
      <rect id="Rectángulo_42013" data-name="Rectángulo 42013" width="131.595" height="46" rx="6" transform="translate(882.405 677.533)" fill="#f7ca18"/>
      <rect id="Rectángulo_42014" data-name="Rectángulo 42014" width="178.595" height="46" rx="6" transform="translate(1176.566 677.533)" fill="#f7ca18"/>
      <text id="Sistemas_de_información" data-name="Sistemas de información" transform="translate(245.02 690.126)" fill="#12263f" font-size="14" font-family="Roboto-Bold, Roboto" font-weight="700"><tspan x="8.612" y="13">Sistemas de información</tspan></text>
      <text id="Prestaciones_sociales" data-name="Prestaciones sociales" transform="translate(580 690.126)" fill="#12263f" font-size="14" font-family="Roboto-Bold, Roboto" font-weight="700"><tspan x="0.087" y="13">Prestaciones sociales</tspan></text>
      <text id="Pagos_laborales" data-name="Pagos laborales" transform="translate(898.984 690.126)" fill="#12263f" font-size="14" font-family="Roboto-Bold, Roboto" font-weight="700"><tspan x="0.031" y="13">Pagos laborales</tspan></text>
      <text id="Nómina_y_seguridad_social" data-name="Nómina y seguridad social" transform="translate(1182.356 690.126)" fill="#12263f" font-size="14" font-family="Roboto-Bold, Roboto" font-weight="700"><tspan x="0.256" y="13">Nómina y seguridad social</tspan></text>
      <g id="Grupo_138280" data-name="Grupo 138280">
        <rect id="Rectángulo_41669" data-name="Rectángulo 41669" width="399" height="95" rx="6" transform="translate(600.532 498)" fill="#242ca3"/>
      </g>
      <text id="Normativa_de_la_seguridad_social_y_las_prestaciones_sociales" data-name="Normativa de la seguridad social y las prestaciones sociales" transform="translate(802.532 514)" fill="#fff" font-size="20" font-family="Roboto-Black, Roboto" font-weight="800"><tspan x="-171.147" y="19">Normativa de la seguridad social y las </tspan><tspan x="-98.193" y="46">prestaciones sociales</tspan></text>
      <g id="Elipse_6464" data-name="Elipse 6464" transform="translate(1136.241 749.204)" fill="#fff" stroke="#242ca3" stroke-width="4">
        <circle cx="128.61" cy="128.61" r="128.61" stroke="none"/>
        <circle cx="128.61" cy="128.61" r="126.61" fill="none"/>
      </g>
      <g id="Elipse_6465" data-name="Elipse 6465" transform="translate(820.882 749.204)" fill="#fff" stroke="#242ca3" stroke-width="4">
        <circle cx="128.61" cy="128.61" r="128.61" stroke="none"/>
        <circle cx="128.61" cy="128.61" r="126.61" fill="none"/>
      </g>
      <g id="Elipse_6466" data-name="Elipse 6466" transform="translate(518.674 749.204)" fill="#fff" stroke="#242ca3" stroke-width="4">
        <circle cx="128.61" cy="128.61" r="128.61" stroke="none"/>
        <circle cx="128.61" cy="128.61" r="126.61" fill="none"/>
      </g>
      <g id="Elipse_6467" data-name="Elipse 6467" transform="translate(202.271 749.204)" fill="#fff" stroke="#242ca3" stroke-width="4">
        <circle cx="128.61" cy="128.61" r="128.61" stroke="none"/>
        <circle cx="128.61" cy="128.61" r="126.61" fill="none"/>
      </g>
      <text id="Conjunto_de_datos_que_se_relacionan_entre_sí_con_el_objetivo_de_administrar_la_información_de_forma_rápida_segura_y_fácil." data-name="Conjunto de datos que se relacionan entre sí, con el objetivo de administrar la información de forma rápida, segura y fácil." transform="translate(247.623 815.003)" fill="#12263f" font-size="14" font-family="Roboto-Bold, Roboto" font-weight="700"><tspan x="4.946" y="13">Conjunto de datos que se </tspan><tspan x="3.89" y="37">relacionan entre sí, con el </tspan><tspan x="4.693" y="61">objetivo de administrar la </tspan><tspan x="16.496" y="85">información de forma </tspan><tspan x="17.23" y="109">rápida, segura y fácil.</tspan></text>
      <text id="Aquí_se_abordarán_y_analizaran_los_conceptos_básicos_de_novedades_sistemas_de_información_prestaciones_sociales_pagos_laborales_normativa_de_la_nómina_y_seguridad_social." data-name="Aquí se abordarán y analizaran los conceptos básicos de novedades, sistemas de información, prestaciones sociales, pagos laborales, normativa de la nómina y seguridad social." transform="translate(221.623 498)" fill="#12263f" font-size="14" font-family="Roboto-Regular, Roboto"><tspan x="27.266" y="13">Aquí se abordarán y analizaran los </tspan><tspan x="28.681" y="37">conceptos básicos de novedades, </tspan><tspan x="13.351" y="61">sistemas de información, prestaciones </tspan><tspan x="4.328" y="85">sociales, pagos laborales, normativa de la </tspan><tspan x="50.679" y="109">nómina y seguridad social.</tspan></text>
      <text id="Procesamiento_de_transacciones_Información_ejecutiva_Información_general_Soporte_de_decisiones_Gestión_del_conocimiento_Gestión_documental_Gestión_del_conocimiento_" data-name="Procesamiento de transacciones
Información ejecutiva
Información general
Soporte de decisiones
Gestión del conocimiento
Gestión documental
Gestión del conocimiento
" transform="translate(234.623 1060.814)" fill="#12263f" font-size="14" font-family="Roboto-Regular, Roboto"><tspan x="0" y="13">Procesamiento de transacciones</tspan><tspan x="0" y="37">Información ejecutiva</tspan><tspan x="0" y="61">Información general</tspan><tspan x="0" y="85">Soporte de decisiones</tspan><tspan x="0" y="109">Gestión del conocimiento</tspan><tspan x="0" y="133">Gestión documental</tspan><tspan x="0" y="157">Gestión del conocimiento</tspan></text>
      <text id="Prima_de_servicios_Vacaciones_Cesantías_Intereses_a_las_cesantías" data-name="Prima de servicios
Vacaciones
Cesantías
Intereses a las cesantías" transform="translate(568.856 1060.814)" fill="#12263f" font-size="14" font-family="Roboto-Regular, Roboto"><tspan x="0" y="13">Prima de servicios</tspan><tspan x="0" y="37">Vacaciones</tspan><tspan x="0" y="61">Cesantías</tspan><tspan x="0" y="85">Intereses a las cesantías</tspan></text>
      <text id="Salario_mínimo_mensual_vigente_Auxilio_de_transporte_Dotación_legal_Prestaciones_sociales" data-name="Salario mínimo mensual vigente
Auxilio de transporte
Dotación legal
Prestaciones sociales" transform="translate(855.108 1060.814)" fill="#12263f" font-size="14" font-family="Roboto-Regular, Roboto"><tspan x="0" y="13">Salario mínimo mensual vigente</tspan><tspan x="0" y="37">Auxilio de transporte</tspan><tspan x="0" y="61">Dotación legal</tspan><tspan x="0" y="85">Prestaciones sociales</tspan></text>
      <text id="Pensión_Salud_Riesgos_laborales_Cajas_de_compensación" data-name="Pensión
Salud
Riesgos laborales
Cajas de compensación" transform="translate(1188.213 1060.814)" fill="#12263f" font-size="14" font-family="Roboto-Regular, Roboto"><tspan x="0" y="13">Pensión</tspan><tspan x="0" y="37">Salud</tspan><tspan x="0" y="61">Riesgos laborales</tspan><tspan x="0" y="85">Cajas de compensación</tspan></text>
      <text id="Tipos:" transform="translate(221.623 1036.814)" fill="#12263f" font-size="14" font-family="Roboto-Bold, Roboto" font-weight="700"><tspan x="0" y="13">Tipos:</tspan></text>
      <text id="Prestaciones_sociales:_" data-name="Prestaciones sociales:
" transform="translate(557.247 1036.814)" fill="#12263f" font-size="14" font-family="Roboto-Bold, Roboto" font-weight="700"><tspan x="0" y="13">Prestaciones sociales:</tspan></text>
      <text id="Pagos_laborales:" data-name="Pagos laborales:" transform="translate(843.499 1036.814)" fill="#12263f" font-size="14" font-family="Roboto-Bold, Roboto" font-weight="700"><tspan x="0" y="13">Pagos laborales:</tspan></text>
      <text id="Aportes_a_seguridad_social:" data-name="Aportes a seguridad social:" transform="translate(1176.604 1036.814)" fill="#12263f" font-size="14" font-family="Roboto-Bold, Roboto" font-weight="700"><tspan x="0" y="13">Aportes a seguridad social:</tspan></text>
      <text id="Son_pagos_adicionales_al_salario_que_recibe_el_empleado_en_ciertas_épocas_del_año_por_el_desempeño_que_realiza_en_su_puesto_de_trabajo." data-name="Son pagos adicionales, al salario, que recibe el empleado en ciertas épocas del año por el desempeño que realiza en su puesto de trabajo." transform="translate(564.026 807.003)" fill="#12263f" font-size="14" font-family="Roboto-Bold, Roboto" font-weight="700"><tspan x="4.632" y="13">Son pagos adicionales, al </tspan><tspan x="19.473" y="37">salario, que recibe el </tspan><tspan x="20.536" y="61">empleado en ciertas </tspan><tspan x="17.572" y="85">épocas del año por el </tspan><tspan x="2.123" y="109">desempeño que realiza en </tspan><tspan x="18.529" y="133">su puesto de trabajo.</tspan></text>
      <text id="Son_valores_que_recibe_el_empleado_en_especie._Ejemplo:_contraprestación_directa_al_servicio." data-name="Son valores que recibe el empleado en especie. Ejemplo: contraprestación directa al servicio." transform="translate(865.221 828.003)" fill="#12263f" font-size="14" font-family="Roboto-Bold, Roboto" font-weight="700"><tspan x="5.661" y="13">Son valores que recibe el </tspan><tspan x="15.836" y="37">empleado en especie. </tspan><tspan x="2.051" y="61">Ejemplo: contraprestación </tspan><tspan x="26.712" y="85">directa al servicio.</tspan></text>
      <text id="Nómina:_pago_que_se_hace_a_los_trabajadores_por_el_desempeño_en_la_labor_de_sus_funciones_en_un_tiempo_determinado._Seguridad_social:_pago_que_se_realiza_según_los_regímenes_generales_del_estado." data-name="Nómina: pago que se hace a los trabajadores por el desempeño en la labor de sus funciones en un tiempo determinado.
Seguridad social: pago que se realiza según los regímenes generales del estado." transform="translate(1167.871 807.003)" fill="#12263f" font-size="14" font-family="Roboto-Bold, Roboto" font-weight="700"><tspan x="0.657" y="13">Nómina: pago que se hace a los </tspan><tspan x="2.834" y="37">trabajadores por el desempeño </tspan><tspan x="3.043" y="61">en la labor de sus funciones en </tspan><tspan x="25.294" y="85">un tiempo determinado.</tspan><tspan x="6.181" y="109">Seguridad social: pago que se </tspan><tspan x="12.295" y="133">realiza según los regímenes </tspan><tspan x="33.104" y="157">generales del estado.</tspan></text>
      <g id="Grupo_138039" data-name="Grupo 138039" transform="translate(-0.721)">
        <circle id="Elipse_6468" data-name="Elipse 6468" cx="3.5" cy="3.5" r="3.5" transform="translate(223.734 1068)" fill="#6836bf"/>
        <circle id="Elipse_6469" data-name="Elipse 6469" cx="3.5" cy="3.5" r="3.5" transform="translate(223.734 1092)" fill="#6836bf"/>
        <circle id="Elipse_6470" data-name="Elipse 6470" cx="3.5" cy="3.5" r="3.5" transform="translate(223.734 1116)" fill="#6836bf"/>
        <circle id="Elipse_6471" data-name="Elipse 6471" cx="3.5" cy="3.5" r="3.5" transform="translate(223.734 1140)" fill="#6836bf"/>
        <circle id="Elipse_6472" data-name="Elipse 6472" cx="3.5" cy="3.5" r="3.5" transform="translate(223.734 1164)" fill="#6836bf"/>
        <circle id="Elipse_6473" data-name="Elipse 6473" cx="3.5" cy="3.5" r="3.5" transform="translate(223.734 1188)" fill="#6836bf"/>
        <circle id="Elipse_6474" data-name="Elipse 6474" cx="3.5" cy="3.5" r="3.5" transform="translate(223.734 1212)" fill="#6836bf"/>
      </g>
      <g id="Grupo_138040" data-name="Grupo 138040" transform="translate(333.513)">
        <circle id="Elipse_6468-2" data-name="Elipse 6468" cx="3.5" cy="3.5" r="3.5" transform="translate(223.734 1068)" fill="#6836bf"/>
        <circle id="Elipse_6469-2" data-name="Elipse 6469" cx="3.5" cy="3.5" r="3.5" transform="translate(223.734 1092)" fill="#6836bf"/>
        <circle id="Elipse_6470-2" data-name="Elipse 6470" cx="3.5" cy="3.5" r="3.5" transform="translate(223.734 1116)" fill="#6836bf"/>
        <circle id="Elipse_6471-2" data-name="Elipse 6471" cx="3.5" cy="3.5" r="3.5" transform="translate(223.734 1140)" fill="#6836bf"/>
      </g>
      <g id="Grupo_138041" data-name="Grupo 138041" transform="translate(619.765)">
        <circle id="Elipse_6468-3" data-name="Elipse 6468" cx="3.5" cy="3.5" r="3.5" transform="translate(223.734 1068)" fill="#6836bf"/>
        <circle id="Elipse_6469-3" data-name="Elipse 6469" cx="3.5" cy="3.5" r="3.5" transform="translate(223.734 1092)" fill="#6836bf"/>
        <circle id="Elipse_6470-3" data-name="Elipse 6470" cx="3.5" cy="3.5" r="3.5" transform="translate(223.734 1116)" fill="#6836bf"/>
        <circle id="Elipse_6471-3" data-name="Elipse 6471" cx="3.5" cy="3.5" r="3.5" transform="translate(223.734 1140)" fill="#6836bf"/>
      </g>
      <g id="Grupo_138042" data-name="Grupo 138042" transform="translate(952.869)">
        <circle id="Elipse_6468-4" data-name="Elipse 6468" cx="3.5" cy="3.5" r="3.5" transform="translate(223.734 1068)" fill="#6836bf"/>
        <circle id="Elipse_6469-4" data-name="Elipse 6469" cx="3.5" cy="3.5" r="3.5" transform="translate(223.734 1092)" fill="#6836bf"/>
        <circle id="Elipse_6470-4" data-name="Elipse 6470" cx="3.5" cy="3.5" r="3.5" transform="translate(223.734 1116)" fill="#6836bf"/>
        <circle id="Elipse_6471-4" data-name="Elipse 6471" cx="3.5" cy="3.5" r="3.5" transform="translate(223.734 1140)" fill="#6836bf"/>
      </g>
    </g>
  </g>
</svg>
