<svg xmlns="http://www.w3.org/2000/svg" xmlns:xlink="http://www.w3.org/1999/xlink" width="88" height="88" viewBox="0 0 88 88">
  <defs>
    <filter id="Rect치ngulo_40719" x="0" y="0" width="88" height="88" filterUnits="userSpaceOnUse">
      <feOffset dy="3" input="SourceAlpha"/>
      <feGaussianBlur stdDeviation="3" result="blur"/>
      <feFlood flood-opacity="0.161"/>
      <feComposite operator="in" in2="blur"/>
      <feComposite in="SourceGraphic"/>
    </filter>
  </defs>
  <g id="Grupo_138266" data-name="Grupo 138266" transform="translate(18905 12909)">
    <g id="Grupo_138263" data-name="Grupo 138263" transform="translate(-20192.332 -13253)">
      <g id="Grupo_137001" data-name="Grupo 137001">
        <g id="Grupo_133190" data-name="Grupo 133190" transform="translate(25 12)">
          <g id="Grupo_128459" data-name="Grupo 128459" transform="translate(1271.333 338)">
            <g transform="matrix(1, 0, 0, 1, -9, -6)" filter="url(#Rect치ngulo_40719)">
              <path id="Rect치ngulo_40719-2" data-name="Rect치ngulo 40719" d="M10,0H60A10,10,0,0,1,70,10V70a0,0,0,0,1,0,0H10A10,10,0,0,1,0,60V10A10,10,0,0,1,10,0Z" transform="translate(9 6)" fill="#b13e8d"/>
            </g>
          </g>
        </g>
        <g id="Grupo_138045" data-name="Grupo 138045" transform="translate(1770.704 -105)">
          <path id="Trazado_198527" data-name="Trazado 198527" d="M-394.24,481.563a1.393,1.393,0,0,1-1.383.721c-2.86-.024-5.72-.006-8.579-.017a.778.778,0,0,0-.711.347,8.19,8.19,0,0,1-5.027,3.351,3.716,3.716,0,0,1-1.158.082,1.444,1.444,0,0,0-1.31.55q-4.717,4.759-9.469,9.484c-.741.741-1.242.74-1.981,0l-18.74-18.733c-.838-.838-.836-1.221.014-2.071q5.277-5.276,10.557-10.549c.26-.26.552-.487.829-.73h.609c.269.226.555.436.8.682.94.926,1.861,1.871,2.809,2.788a.662.662,0,0,0,.549.154c1.311-.445,2.625-.887,3.909-1.4a8.488,8.488,0,0,1,6.984.178c1.426.657,2.823,1.378,4.219,2.1,1.005.519,1.976,1.105,2.983,1.62a4.477,4.477,0,0,0,2.13.482c.184-1.038.421-1.255,1.342-1.263.3,0,.609,0,.914,0h1.641c0-.234,0-.384,0-.533.012-1.056.313-1.358,1.363-1.359,1.776,0,3.553.019,5.329-.011a1.333,1.333,0,0,1,1.372.729Zm-30.848-12.235a2.045,2.045,0,0,0,.145.19c1.147,1.149,2.292,2.3,3.45,3.441a1.339,1.339,0,0,0,.521.285c1.72.554,3.444,1.1,5.166,1.643.6.189,1.2.364,1.78.585a.98.98,0,0,1,.586,1.247,1.011,1.011,0,0,1-1.166.669,4.031,4.031,0,0,1-.486-.143c-2.866-.906-5.731-1.818-8.6-2.717a1.953,1.953,0,0,0-2.334.851,1.892,1.892,0,0,0,.365,2.447,4.071,4.071,0,0,0,1.337.782c2.485.875,4.99,1.692,7.474,2.567a2.563,2.563,0,0,1,1,.71,5.835,5.835,0,0,0,5.891,1.987,6.1,6.1,0,0,0,3.711-2.89.821.821,0,0,0,.1-.433c.006-2.487,0-4.974.01-7.46,0-.315-.081-.446-.418-.469a8.55,8.55,0,0,1-3.459-1.063c-2.145-1.145-4.292-2.29-6.475-3.36a6.047,6.047,0,0,0-4.692-.3C-422.48,468.332-423.753,468.836-425.087,469.328Zm3.828,12.485c-.082.226-.142.4-.206.569a5.81,5.81,0,0,1-5.926,3.708,5.8,5.8,0,0,1-5.22-5,5.713,5.713,0,0,1,3.7-6.151,2.855,2.855,0,0,0,1.523-1.1,3.758,3.758,0,0,1,2.342-1.41l-2.138-2.138c.058-.006.038-.01.025,0a6.483,6.483,0,0,1-7.31.076.362.362,0,0,0-.34.031c-.728.7-1.44,1.423-2.147,2.128a6.526,6.526,0,0,1,.077,7.471l10.352,10.353a6.293,6.293,0,0,1,3.7-1.143,6.418,6.418,0,0,1,3.706,1.187l2.316-2.319a6.623,6.623,0,0,1-1.055-5.116Zm24.95-1.592V469.507h-3.929V480.22Zm-26.958.891c-2.273-.667-4.55-1.385-5.045-4.2a3.671,3.671,0,0,0-2.26,4.11,3.784,3.784,0,0,0,3.767,3.062A3.662,3.662,0,0,0-423.266,481.112Zm19.19-9.715v8.812h1.742V471.4Zm-16.611,20.463a4.087,4.087,0,0,0-4.374.01l2.184,2.181Zm-20.047-15.535c.115.122.216.233.322.339q.961.971,1.928,1.943a4.136,4.136,0,0,0,0-4.57q-.966.977-1.924,1.946C-440.52,476.091-440.621,476.2-440.734,476.325Zm9.754-9.847c-.338.362-.685.75-1.051,1.119s-.767.733-1.163,1.109a4.137,4.137,0,0,0,4.507.065Zm15.078,18.147-.12.05.6,1.9,1.18-1.055Z" transform="translate(-19.139)" fill="#fff"/>
          <path id="Trazado_198528" data-name="Trazado 198528" d="M-453.409,711.562c-.17,1.08-.422,1.293-1.474,1.294q-1.117,0-2.233.006a1.255,1.255,0,0,0-.187.048c0,.237.011.5,0,.76a.977.977,0,0,1-1.044,1.059q-2.995.025-5.99,0a.968.968,0,0,1-1.023-1.078q-.009-6.319,0-12.637c0-.745.424-1.1,1.27-1.1,2.826,0,5.652-.013,8.477.01a1.157,1.157,0,0,0,1.047-.509,7.67,7.67,0,0,1,5-3.2,7.935,7.935,0,0,1,7.126,2.5,2.074,2.074,0,0,0,.771.521c2.249.781,4.5,1.552,6.766,2.292a5.033,5.033,0,0,1,3.442,3.024c1.166-.318,2.319-.628,3.469-.946q2-.554,4-1.12a5.1,5.1,0,0,1,2.557-.125,3.96,3.96,0,0,1,2.2,6.338,5.327,5.327,0,0,1-2.4,1.72q-7.94,2.849-15.879,5.7a8.087,8.087,0,0,1-6.414-.29c-2.238-1.071-4.423-2.257-6.616-3.419A6.623,6.623,0,0,0-453.409,711.562Zm-.05-2.044a10.02,10.02,0,0,1,4.494,1.439c1.89,1.047,3.82,2.026,5.755,2.988a6.139,6.139,0,0,0,4.051.526,13.541,13.541,0,0,0,1.778-.581q7.515-2.685,15.027-5.377a3.164,3.164,0,0,0,1.607-1.182,1.914,1.914,0,0,0-1.324-3.008,3.319,3.319,0,0,0-1.249.1q-3.841,1.034-7.665,2.131a.793.793,0,0,0-.457.435,4.013,4.013,0,0,1-5.167,2.582c-1.612-.505-3.22-1.022-4.83-1.532-1.336-.423-2.676-.837-4.009-1.27a.992.992,0,0,1-.76-1.063.947.947,0,0,1,.813-.907,1.817,1.817,0,0,1,.74.1c1.5.464,3,.943,4.493,1.418,1.417.45,2.829.912,4.25,1.348a1.97,1.97,0,0,0,2.332-.86,1.891,1.891,0,0,0-.368-2.447,4.422,4.422,0,0,0-1.432-.817c-2.468-.871-4.957-1.684-7.427-2.551a2.294,2.294,0,0,1-.918-.651,5.842,5.842,0,0,0-5.774-2.063,6.03,6.03,0,0,0-3.855,2.928,1.123,1.123,0,0,0-.1.583c-.007,1.759,0,3.519,0,5.278Zm-5.916,3.175V701.972H-463.3v10.721Zm2.121-10.729V710.8h1.727v-8.834Z" transform="translate(0 -200.648)" fill="#fff"/>
          <path id="Trazado_198529" data-name="Trazado 198529" d="M-209.338,557.6a.985.985,0,0,1-1.035.954,1.012,1.012,0,0,1-.982-1.021,1.013,1.013,0,0,1,1.074-.979A.985.985,0,0,1-209.338,557.6Z" transform="translate(-219.565 -80.001)" fill="#fff"/>
          <path id="Trazado_198530" data-name="Trazado 198530" d="M-349.9,753.458a1.019,1.019,0,0,1-.98-1.026.99.99,0,0,1,1.049-.995,1.021,1.021,0,0,1,.967,1.039A1.047,1.047,0,0,1-349.9,753.458Z" transform="translate(-98.959 -248.458)" fill="#fff"/>
        </g>
      </g>
    </g>
  </g>
</svg>
