<svg xmlns="http://www.w3.org/2000/svg" xmlns:xlink="http://www.w3.org/1999/xlink" width="88" height="88" viewBox="0 0 88 88">
  <defs>
    <filter id="Trazado_188616" x="0" y="0" width="88" height="88" filterUnits="userSpaceOnUse">
      <feOffset dy="3" input="SourceAlpha"/>
      <feGaussianBlur stdDeviation="3" result="blur"/>
      <feFlood flood-opacity="0.161"/>
      <feComposite operator="in" in2="blur"/>
      <feComposite in="SourceGraphic"/>
    </filter>
  </defs>
  <g id="Grupo_138267" data-name="Grupo 138267" transform="translate(19005 12909)">
    <g id="Grupo_138262" data-name="Grupo 138262" transform="translate(-20274.332 -13089)">
      <g id="Grupo_137000" data-name="Grupo 137000">
        <g id="Grupo_133193" data-name="Grupo 133193" transform="translate(48 62)">
          <g id="Grupo_128476" data-name="Grupo 128476" transform="translate(1230.333 124)">
            <g transform="matrix(1, 0, 0, 1, -9, -6)" filter="url(#Trazado_188616)">
              <path id="Trazado_188616-2" data-name="Trazado 188616" d="M7.778,0H62.222A7.778,7.778,0,0,1,70,7.778V70H7.778A7.778,7.778,0,0,1,0,62.222V7.778A7.778,7.778,0,0,1,7.778,0Z" transform="translate(9 6)" fill="#f7ca18"/>
            </g>
          </g>
        </g>
        <g id="Grupo_138046" data-name="Grupo 138046" transform="translate(1030.332 128.666)">
          <path id="Trazado_198531" data-name="Trazado 198531" d="M258,112.411V74.5c.2-.224.391-.459.6-.671q3.116-3.117,6.239-6.227c.213-.212.448-.4.673-.6h27.523a1.991,1.991,0,0,1,1.367,2.157c-.027,5.976-.013,11.953-.013,17.929v.681h.625q3.5,0,7,0a2.6,2.6,0,0,1,2.786,2.788c.005,1.249.012,2.5-.006,3.748a.752.752,0,0,0,.354.711c.912.642,1.782,1.344,2.706,1.967A4.618,4.618,0,0,1,310,99.741v16.218a1.2,1.2,0,0,0-.061.133,3.486,3.486,0,0,1-3.8,2.806q-11.832,0-23.664,0a3.454,3.454,0,0,1-3.669-3.643c0-.5,0-1,0-1.538h-.673c-5.958,0-11.917-.015-17.875.014A2.132,2.132,0,0,1,258,112.411Zm1.76-36.77v36.3h19.048v-.651c0-3.6.01-7.194,0-10.792a3.553,3.553,0,0,1,1.552-3.073c1.122-.813,2.241-1.632,3.342-2.473a.832.832,0,0,0,.29-.568c.026-1.283.01-2.567.014-3.85a2.586,2.586,0,0,1,2.752-2.765c1.777-.006,3.553,0,5.33,0h.542v-19H266.658v.594c0,1.435,0,2.871,0,4.307A1.736,1.736,0,0,1,264.7,75.64c-1.049,0-2.1,0-3.147,0Zm22.61,41.485h24.043c-.122-.1-.173-.141-.226-.18q-5.516-4.058-11.033-8.113a1.062,1.062,0,0,0-1.515.008q-3.149,2.311-6.295,4.625Zm13.831-9.692c1.066-.783,2.108-1.534,3.127-2.313a.775.775,0,0,0,.267-.537c.016-2.919.008-5.839.018-8.758a.46.46,0,0,0-.354-.512,3.328,3.328,0,0,1-2.04-2.048.419.419,0,0,0-.475-.322c-1.572.01-3.145,0-4.717.018a.571.571,0,0,0-.417.294,3.5,3.5,0,0,1-2.1,2.069.42.42,0,0,0-.325.476c.007,2.936,0,5.873.01,8.809a.563.563,0,0,0,.133.4c1.087.822,2.188,1.624,3.276,2.425A2.838,2.838,0,0,1,296.2,107.435Zm5.141-3.78c.587-.43,1.083-.775,1.553-1.153a.619.619,0,0,0,.173-.434q.014-5.776,0-11.552c0-.691-.319-1.017-.983-1.018q-7.691-.007-15.383,0a.862.862,0,0,0-.973.97q-.009,5.8,0,11.6c0,.126.015.306.1.369.508.4,1.036.776,1.632,1.215v-.669q0-4.028,0-8.056c0-.752.228-1.016.943-1.119a1.737,1.737,0,0,0,1.671-1.717.853.853,0,0,1,.968-.868q3.351-.009,6.7,0a.87.87,0,0,1,.986.908,1.72,1.72,0,0,0,1.6,1.67c.79.114,1.006.359,1.008,1.167q0,3.142,0,6.283Zm6.864-2.886-10.556,7.75,10.4,7.643C308.295,115.652,308.421,102.115,308.206,100.768Zm-27.461,15.4,10.409-7.648L280.6,100.771C280.4,101.958,280.517,115.676,280.745,116.168ZM261.111,73.874h3.772V70.091Zm20.02,25.131,2.827,2.079V96.926Zm26.543,0-2.825-2.077v4.157Z" fill="#6836bf"/>
          <path id="Trazado_198532" data-name="Trazado 198532" d="M327.847,169.223h10.815c.876,0,1.293.279,1.294.86s-.426.873-1.29.873q-10.841,0-21.682,0a2.433,2.433,0,0,1-.7-.069.844.844,0,0,1,.092-1.627,3.064,3.064,0,0,1,.606-.035Q322.413,169.221,327.847,169.223Z" transform="translate(-49.889 -88.38)" fill="#6836bf"/>
          <path id="Trazado_198533" data-name="Trazado 198533" d="M324.336,207.579h7.412a3.646,3.646,0,0,1,.507.014.848.848,0,0,1,.179,1.636,2.078,2.078,0,0,1-.648.075q-7.437.006-14.875,0a2.028,2.028,0,0,1-.7-.09.774.774,0,0,1-.518-.886.788.788,0,0,1,.72-.733,3.324,3.324,0,0,1,.507-.015Z" transform="translate(-49.877 -121.541)" fill="#6836bf"/>
          <path id="Trazado_198534" data-name="Trazado 198534" d="M323.52,245.851c2.233,0,4.466-.016,6.7.018a1.307,1.307,0,0,1,.9.408.824.824,0,0,1-.709,1.293c-.455.025-.913.007-1.37.007H317.011c-.152,0-.3.007-.457,0a.853.853,0,0,1-.866-.868.833.833,0,0,1,.879-.849c.846-.016,1.692-.005,2.537-.006Z" transform="translate(-49.877 -154.628)" fill="#6836bf"/>
          <path id="Trazado_198535" data-name="Trazado 198535" d="M321.743,285.859q-2.459,0-4.917,0c-.755,0-1.128-.282-1.134-.848s.386-.879,1.114-.879q4.942,0,9.885,0c.64,0,1,.23,1.093.682a.852.852,0,0,1-.921,1.041C325.156,285.865,323.449,285.858,321.743,285.859Z" transform="translate(-49.879 -187.727)" fill="#6836bf"/>
          <path id="Trazado_198536" data-name="Trazado 198536" d="M321.336,360.847q2.183,0,4.366,0a3.027,3.027,0,0,1,.556.034.843.843,0,0,1,.091,1.628,2.31,2.31,0,0,1-.651.068q-4.392.006-8.783,0a2.837,2.837,0,0,1-.505-.03.849.849,0,0,1,.054-1.685,4.806,4.806,0,0,1,.557-.017Z" transform="translate(-49.874 -254.055)" fill="#6836bf"/>
          <path id="Trazado_198537" data-name="Trazado 198537" d="M321.192,324.169c-1.54,0-3.08.008-4.62,0-.728-.006-1.16-.553-.929-1.152a.868.868,0,0,1,.876-.572q4.7-.006,9.393,0a.866.866,0,1,1-.049,1.72C324.306,324.175,322.749,324.169,321.192,324.169Z" transform="translate(-49.783 -220.848)" fill="#6836bf"/>
          <path id="Trazado_198538" data-name="Trazado 198538" d="M290.945,247.617a.86.86,0,1,1,.07-1.718.86.86,0,0,1-.07,1.718Z" transform="translate(-27.768 -154.672)" fill="#6836bf"/>
          <path id="Trazado_198539" data-name="Trazado 198539" d="M291.831,285.049a.868.868,0,0,1-.891.842.833.833,0,0,1-.827-.89.855.855,0,0,1,.85-.827A.888.888,0,0,1,291.831,285.049Z" transform="translate(-27.765 -187.764)" fill="#6836bf"/>
          <path id="Trazado_198540" data-name="Trazado 198540" d="M291.836,208.491a.892.892,0,0,1-.886.857.859.859,0,0,1-.831-.9.826.826,0,0,1,.845-.819A.864.864,0,0,1,291.836,208.491Z" transform="translate(-27.768 -121.588)" fill="#6836bf"/>
          <path id="Trazado_198541" data-name="Trazado 198541" d="M291.831,170.176a.876.876,0,0,1-.9.838.851.851,0,0,1-.819-.9.833.833,0,0,1,.86-.806A.858.858,0,0,1,291.831,170.176Z" transform="translate(-27.764 -88.451)" fill="#6836bf"/>
          <path id="Trazado_198542" data-name="Trazado 198542" d="M290.964,362.646a.852.852,0,0,1-.846-.878.829.829,0,0,1,.833-.832.857.857,0,0,1,.884.844A.879.879,0,0,1,290.964,362.646Z" transform="translate(-27.769 -254.133)" fill="#6836bf"/>
          <path id="Trazado_198543" data-name="Trazado 198543" d="M290.981,322.505a.885.885,0,0,1,.853.887.859.859,0,0,1-.9.825.824.824,0,0,1-.815-.848A.858.858,0,0,1,290.981,322.505Z" transform="translate(-27.769 -220.905)" fill="#6836bf"/>
          <path id="Trazado_198544" data-name="Trazado 198544" d="M504.594,303.827a3.458,3.458,0,1,1,3.494-3.41A3.464,3.464,0,0,1,504.594,303.827Zm.041-1.731a1.706,1.706,0,0,0,1.712-1.692,1.729,1.729,0,0,0-1.709-1.759,1.754,1.754,0,0,0-1.749,1.729A1.731,1.731,0,0,0,504.635,302.1Z" transform="translate(-210.225 -198.777)" fill="#6836bf"/>
          <path id="Trazado_198545" data-name="Trazado 198545" d="M522.194,272.279a.868.868,0,0,1-.886.848.848.848,0,0,1-.836-.889.867.867,0,0,1,.852-.83A.885.885,0,0,1,522.194,272.279Z" transform="translate(-226.929 -176.728)" fill="#6836bf"/>
        </g>
      </g>
    </g>
  </g>
</svg>
