<svg xmlns="http://www.w3.org/2000/svg" xmlns:xlink="http://www.w3.org/1999/xlink" width="88" height="88" viewBox="0 0 88 88">
  <defs>
    <filter id="Rect치ngulo_40821" x="0" y="0" width="88" height="88" filterUnits="userSpaceOnUse">
      <feOffset dy="3" input="SourceAlpha"/>
      <feGaussianBlur stdDeviation="3" result="blur"/>
      <feFlood flood-opacity="0.161"/>
      <feComposite operator="in" in2="blur"/>
      <feComposite in="SourceGraphic"/>
    </filter>
  </defs>
  <g id="Grupo_138268" data-name="Grupo 138268" transform="translate(19122 12909)">
    <g id="Grupo_138261" data-name="Grupo 138261" transform="translate(-20057.332 -13190)">
      <g transform="matrix(1, 0, 0, 1, 935.33, 281)" filter="url(#Rect치ngulo_40821)">
        <path id="Rect치ngulo_40821-2" data-name="Rect치ngulo 40821" d="M10,0H60A10,10,0,0,1,70,10V70a0,0,0,0,1,0,0H10A10,10,0,0,1,0,60V10A10,10,0,0,1,10,0Z" transform="translate(9 6)" fill="#7fc733"/>
      </g>
      <g id="Grupo_138044" data-name="Grupo 138044" transform="translate(1414.406 263.492)">
        <path id="Trazado_198514" data-name="Trazado 198514" d="M-384.779,62.357c.55,0,1.07.016,1.588-.01.146-.007.375-.1.414-.214.374-1.05.715-2.111,1.09-3.242h-.634q-4.135,0-8.269,0a2.616,2.616,0,0,1-2.864-2.85q0-10.155,0-20.31a2.61,2.61,0,0,1,2.822-2.837q13.62,0,27.239,0a2.6,2.6,0,0,1,2.8,2.805q0,10.182,0,20.364a2.61,2.61,0,0,1-2.833,2.827q-4.135,0-8.269,0h-.663c.371,1.124.718,2.2,1.093,3.264.035.1.244.188.376.194.521.022,1.043.009,1.606.009v1.7h-15.495Zm22.436-8.688c.008-.129.019-.216.019-.3q0-8.852,0-17.7c0-.76-.325-1.035-1.181-1.035H-390.52c-.95,0-1.206.261-1.206,1.227q0,8.635,0,17.271c0,.175.015.35.024.545Zm-29.337,1.776c-.165,1.227.01,1.733,1.465,1.728,8.84-.03,17.68-.015,26.52-.015a5.021,5.021,0,0,0,.54-.007.842.842,0,0,0,.824-.84c.023-.281,0-.565,0-.865Zm18.633,6.895c-.366-1.107-.713-2.183-1.088-3.249-.035-.1-.248-.19-.379-.191q-2.512-.019-5.025,0c-.13,0-.341.094-.376.194-.375,1.065-.721,2.14-1.087,3.246Z" transform="translate(-56.369 0)" fill="#12263f"/>
        <path id="Trazado_198515" data-name="Trazado 198515" d="M-440.312,285.086h1.652a23.411,23.411,0,0,1-.03,3.2,2.431,2.431,0,0,1-2.573,2.014c-2.665.008-5.329,0-7.993,0q-3.619,0-7.237,0a2.618,2.618,0,0,1-2.844-2.867c0-.755,0-1.51,0-2.323h1.729v-.638q0-4.33,0-8.66a2.611,2.611,0,0,1,2.813-2.843q5.833,0,11.666,0a2.606,2.606,0,0,1,2.816,2.84q0,4.33,0,8.659Zm-1.729-.01c0-3.126,0-6.191,0-9.257,0-.836-.293-1.12-1.15-1.12q-5.751,0-11.5,0c-.916,0-1.182.271-1.183,1.2q0,4.329,0,8.658c0,.173.016.346.024.523Zm1.729,1.789h-17.277c-.007.121-.016.208-.017.3-.022,1.171.2,1.4,1.354,1.4h5.129q4.859,0,9.718,0c.782,0,1.083-.3,1.093-1.07C-440.31,287.3-440.312,287.1-440.312,286.866Z" transform="translate(0 -205.409)" fill="#12263f"/>
        <path id="Trazado_198516" data-name="Trazado 198516" d="M-243.753,285.106h1.726v-.612q0-4.33,0-8.66a2.616,2.616,0,0,1,2.844-2.866q5.806,0,11.612,0a2.614,2.614,0,0,1,2.839,2.872q0,4.3,0,8.605v.646h1.707c0,1.027.072,2-.017,2.962a2.5,2.5,0,0,1-2.51,2.239q-7.831.021-15.662,0a2.551,2.551,0,0,1-2.533-2.458C-243.779,286.951-243.753,286.067-243.753,285.106Zm17.292-.029c0-3.126,0-6.192,0-9.258,0-.835-.294-1.118-1.152-1.119q-5.751,0-11.5,0c-.914,0-1.181.271-1.181,1.2q0,4.329,0,8.659c0,.173.015.345.024.52Zm-15.532,1.774c-.122,1.5.071,1.715,1.49,1.715h6.587q4.049,0,8.1,0c.643,0,1.008-.247,1.069-.753a8.161,8.161,0,0,0,.007-.96Z" transform="translate(-184.448 -205.41)" fill="#12263f"/>
        <path id="Trazado_198517" data-name="Trazado 198517" d="M-442.818,88.928l1.291,1.223c-.7.688-1.4,1.341-2.053,2.03a1.112,1.112,0,0,0-.292.693c-.017,5.126-.009,10.253-.021,15.379a.639.639,0,0,0,.4.656,2.535,2.535,0,0,1,1.25,2.9,2.588,2.588,0,0,1-2.538,1.958,2.59,2.59,0,0,1-2.476-1.968,2.517,2.517,0,0,1,1.263-2.89.669.669,0,0,0,.385-.72c-.007-5.307,0-10.614-.013-15.921a1.123,1.123,0,0,1,.366-.9C-444.429,90.572-443.628,89.744-442.818,88.928Zm-1.072,22.252a.868.868,0,0,0-.835-.874.868.868,0,0,0-.886.878.868.868,0,0,0,.862.847A.87.87,0,0,0-443.89,111.18Z" transform="translate(-10.262 -47.945)" fill="#12263f"/>
        <path id="Trazado_198518" data-name="Trazado 198518" d="M-152.2,90.069l1.233-1.234c.927.922,1.852,1.826,2.75,2.756.109.113.094.37.094.56q.007,7.96,0,15.921a.755.755,0,0,0,.45.792,2.531,2.531,0,0,1,1.186,2.925,2.6,2.6,0,0,1-2.531,1.9,2.59,2.59,0,0,1-2.459-1.922,2.534,2.534,0,0,1,1.21-2.915.709.709,0,0,0,.43-.748c-.01-5.09,0-10.181-.02-15.271a1.2,1.2,0,0,0-.3-.742C-150.8,91.409-151.488,90.768-152.2,90.069Zm3.218,20.157a.868.868,0,0,0-.862.848.868.868,0,0,0,.886.878.871.871,0,0,0,.836-.875A.868.868,0,0,0-148.982,110.227Z" transform="translate(-262.79 -47.865)" fill="#12263f"/>
        <path id="Trazado_198519" data-name="Trazado 198519" d="M-274.649,272.412l-1.315,1.282c-.608-.612-1.235-1.225-1.833-1.864a.8.8,0,0,1-.113-.5c-.008-1.605-.012-3.211,0-4.816a.628.628,0,0,0-.372-.674,2.525,2.525,0,0,1-1.269-2.934,2.586,2.586,0,0,1,2.5-1.932,2.587,2.587,0,0,1,2.5,1.935,2.53,2.53,0,0,1-1.272,2.934.6.6,0,0,0-.37.62c.015,1.371-.009,2.742.021,4.113a1.224,1.224,0,0,0,.312.737C-275.5,271.706-275.068,272.039-274.649,272.412Zm-1.541-8.838a.87.87,0,0,0-.846-.865.872.872,0,0,0-.876.835.869.869,0,0,0,.872.892A.873.873,0,0,0-276.191,263.574Z" transform="translate(-153.748 -195.15)" fill="#12263f"/>
        <path id="Trazado_198520" data-name="Trazado 198520" d="M-315.349,264.111l1.261-1.249c.622.622,1.25,1.233,1.851,1.871a.809.809,0,0,1,.11.5c.008,1.605.012,3.211,0,4.817a.629.629,0,0,0,.376.671,2.523,2.523,0,0,1,1.265,2.936,2.589,2.589,0,0,1-2.5,1.93,2.588,2.588,0,0,1-2.5-1.94,2.53,2.53,0,0,1,1.276-2.931.593.593,0,0,0,.367-.621c-.014-1.371.01-2.742-.02-4.113a1.267,1.267,0,0,0-.312-.738C-314.532,264.841-314.947,264.493-315.349,264.111Zm3.222,8.877a.871.871,0,0,0-.846-.865.872.872,0,0,0-.876.835.87.87,0,0,0,.872.892A.873.873,0,0,0-312.127,272.989Z" transform="translate(-123 -196.765)" fill="#12263f"/>
        <path id="Trazado_198521" data-name="Trazado 198521" d="M-332.217,69.233c.251-.412.533-.869.809-1.331.307-.515.147-.886-.442-1.03-.505-.124-1.012-.243-1.539-.369V63.318c.514-.124,1.033-.246,1.551-.375.577-.143.731-.522.422-1.039-.268-.448-.542-.892-.779-1.28l2.278-2.294c.364.221.819.5,1.275.774.546.33.9.176,1.055-.455.1-.4.192-.806.289-1.209.021-.088.048-.174.081-.295h3.182c.124.523.243,1.048.375,1.569.139.552.515.7,1.006.412.462-.276.92-.559,1.347-.819l2.265,2.271c-.244.4-.514.846-.781,1.291-.35.582-.2.921.469,1.084l1.484.357v3.2c-.531.128-1.068.251-1.6.389a.594.594,0,0,0-.4.974c.274.465.561.922.812,1.333l-2.285,2.28c-.359-.217-.815-.494-1.273-.768-.544-.326-.9-.17-1.056.456-.1.4-.191.806-.289,1.209-.021.088-.047.174-.08.295h-3.182c-.125-.524-.244-1.048-.375-1.57-.141-.56-.509-.71-1-.412-.461.277-.917.562-1.342.823Zm10.608.123c.511-.215.38-.485.176-.711a1.467,1.467,0,0,1-.146-1.946.639.639,0,0,0,.08-.2,1.463,1.463,0,0,1,1.431-1.262c.172-.014.327-.226.49-.347-.158-.106-.309-.289-.476-.306a1.453,1.453,0,0,1-1.438-1.251.449.449,0,0,0-.057-.151,1.537,1.537,0,0,1,.13-2.047c.1-.108.063-.334.089-.5-.184.019-.426-.031-.543.068a1.505,1.505,0,0,1-1.995.138.568.568,0,0,0-.2-.078,1.453,1.453,0,0,1-1.242-1.447c-.018-.164-.2-.311-.313-.466-.113.149-.31.291-.326.45a1.508,1.508,0,0,1-1.279,1.479.456.456,0,0,0-.15.059,1.5,1.5,0,0,1-2-.13c-.118-.1-.36-.059-.545-.083.029.186-.007.429.1.548a1.484,1.484,0,0,1,.139,1.952.626.626,0,0,0-.079.2,1.5,1.5,0,0,1-1.483,1.276c-.156.015-.292.217-.438.333.158.105.309.286.475.3a1.42,1.42,0,0,1,1.416,1.205.9.9,0,0,0,.127.3,1.449,1.449,0,0,1-.149,1.9c-.107.125-.081.364-.116.55.2-.027.459.017.587-.093a1.451,1.451,0,0,1,1.9-.14.478.478,0,0,0,.147.067,1.549,1.549,0,0,1,1.35,1.542c.009.142.2.274.3.41.113-.15.31-.292.324-.451.076-.814.549-1.173,1.266-1.509A1.852,1.852,0,0,1-321.609,69.356Z" transform="translate(-107.763 -20.75)" fill="#12263f"/>
        <path id="Trazado_198522" data-name="Trazado 198522" d="M-229.172,96.309l-1.246-1.122a9.7,9.7,0,0,0,1.881-9.54l1.55-.555A11.034,11.034,0,0,1-229.172,96.309Z" transform="translate(-195.866 -44.663)" fill="#12263f"/>
        <path id="Trazado_198523" data-name="Trazado 198523" d="M-354.587,59.045l1.24,1.122a9.693,9.693,0,0,0-1.883,9.549l-1.55.549A11.023,11.023,0,0,1-354.587,59.045Z" transform="translate(-87.156 -22.377)" fill="#12263f"/>
        <path id="Trazado_198524" data-name="Trazado 198524" d="M-344.647,145.647l-1.282,1.155-1.369-1.867,1.494-.88Z" transform="translate(-95.862 -95.113)" fill="#12263f"/>
        <path id="Trazado_198525" data-name="Trazado 198525" d="M-228.74,59.142l1.3,1.819-1.487.877-1.109-1.541Z" transform="translate(-196.191 -22.46)" fill="#12263f"/>
        <path id="Trazado_198526" data-name="Trazado 198526" d="M-292.417,95.524a2.605,2.605,0,0,1-2.618,2.6,2.606,2.606,0,0,1-2.564-2.6,2.6,2.6,0,0,1,2.618-2.6A2.6,2.6,0,0,1-292.417,95.524Zm-2.613-.862a.871.871,0,0,0-.84.87.868.868,0,0,0,.854.856.873.873,0,0,0,.868-.9A.872.872,0,0,0-295.03,94.662Z" transform="translate(-138.384 -51.368)" fill="#12263f"/>
      </g>
    </g>
  </g>
</svg>
