<svg xmlns="http://www.w3.org/2000/svg" xmlns:xlink="http://www.w3.org/1999/xlink" width="190" height="112" viewBox="0 0 190 112">
  <defs>
    <linearGradient id="linear-gradient" x1="0.5" x2="0.5" y2="1" gradientUnits="objectBoundingBox">
      <stop offset="0" stop-color="#f7ca2e" stop-opacity="0"/>
      <stop offset="0.091" stop-color="#f7ca2e" stop-opacity="0.129"/>
      <stop offset="0.283" stop-color="#f7ca2e" stop-opacity="0.388"/>
      <stop offset="0.465" stop-color="#f7ca2e" stop-opacity="0.612"/>
      <stop offset="0.633" stop-color="#f7ca2e" stop-opacity="0.78"/>
      <stop offset="0.784" stop-color="#f7ca2e" stop-opacity="0.902"/>
      <stop offset="0.911" stop-color="#f7ca2e" stop-opacity="0.969"/>
      <stop offset="1" stop-color="#f7ca2e"/>
    </linearGradient>
    <linearGradient id="linear-gradient-2" x1="0.5" x2="0.5" y2="1" gradientUnits="objectBoundingBox">
      <stop offset="0" stop-color="#b13e8d" stop-opacity="0"/>
      <stop offset="0.091" stop-color="#b13e8d" stop-opacity="0.129"/>
      <stop offset="0.283" stop-color="#b13e8d" stop-opacity="0.388"/>
      <stop offset="0.465" stop-color="#b13e8d" stop-opacity="0.612"/>
      <stop offset="0.633" stop-color="#b13e8d" stop-opacity="0.78"/>
      <stop offset="0.784" stop-color="#b13e8d"/>
      <stop offset="0.911" stop-color="#b13e8d" stop-opacity="0.969"/>
      <stop offset="1" stop-color="#b13e8d"/>
    </linearGradient>
    <filter id="Rectángulo_40720" x="41" y="4" width="108" height="108" filterUnits="userSpaceOnUse">
      <feOffset dy="3" input="SourceAlpha"/>
      <feGaussianBlur stdDeviation="3" result="blur"/>
      <feFlood flood-opacity="0.161"/>
      <feComposite operator="in" in2="blur"/>
      <feComposite in="SourceGraphic"/>
    </filter>
  </defs>
  <g id="Grupo_137009" data-name="Grupo 137009" transform="translate(-180 -399)">
    <rect id="Rectángulo_40586" data-name="Rectángulo 40586" width="190" height="20" transform="translate(180 444)" fill="none"/>
    <g id="Grupo_108405" data-name="Grupo 108405" transform="translate(209.5 463)">
      <path id="Rectángulo_5242" data-name="Rectángulo 5242" d="M0,0H12a0,0,0,0,1,0,0V43.333a3,3,0,0,1-3,3H3a3,3,0,0,1-3-3V0A0,0,0,0,1,0,0Z" transform="translate(0 0)" fill="url(#linear-gradient)"/>
    </g>
    <g id="Grupo_108406" data-name="Grupo 108406" transform="translate(340 451) rotate(180)">
      <path id="Rectángulo_5242-2" data-name="Rectángulo 5242" d="M0,0H12a0,0,0,0,1,0,0V49a3,3,0,0,1-3,3H3a3,3,0,0,1-3-3V0A0,0,0,0,1,0,0Z" transform="translate(0 0)" fill="url(#linear-gradient-2)"/>
    </g>
    <g transform="matrix(1, 0, 0, 1, 180, 399)" filter="url(#Rectángulo_40720)">
      <path id="Rectángulo_40720-2" data-name="Rectángulo 40720" d="M10,0H80A10,10,0,0,1,90,10V90a0,0,0,0,1,0,0H10A10,10,0,0,1,0,80V10A10,10,0,0,1,10,0Z" transform="translate(50 10)" fill="#f6f6f6"/>
    </g>
    <g id="Grupo_137122" data-name="Grupo 137122" transform="translate(157.555 263.167)">
      <path id="Trazado_198044" data-name="Trazado 198044" d="M107.339,226c-4.371-1-8.413-2.95-12.632-4.39l-.407-.137c-.07.36-.115.692-.2,1.012a2.806,2.806,0,0,1-2.594,2.156c-1.748.056-3.5.066-5.249,0a2.84,2.84,0,0,1-2.679-2.767c-.011-.182-.013-.364-.013-.546q0-11.583,0-23.166a2.978,2.978,0,0,1,2.315-3.249,3.518,3.518,0,0,1,.809-.075c1.432-.007,2.865,0,4.3,0a3.008,3.008,0,0,1,3.244,3.161c0,.11.014.221.024.376l2.857.251c0-.2.008-.394,0-.59a26.529,26.529,0,0,1,4.188-15.145A43.7,43.7,0,0,1,111.7,171.427a1.919,1.919,0,0,0,.459-.486c-3.067.159-5.988.62-7.971,3.384a1.578,1.578,0,0,1-1.089.611c-.288,0-.722-.409-.832-.727a1.433,1.433,0,0,1,.248-1.054,8.779,8.779,0,0,1,5.432-3.727c1.372-.356,2.8-.512,4.275-.772a4.9,4.9,0,0,0-3.775-1.99c-1.041-.03-2.087.055-3.124-.016a8.359,8.359,0,0,1-3.93-1.411,1.043,1.043,0,1,1,1.106-1.747,7.441,7.441,0,0,0,4.749,1.131,7.18,7.18,0,0,1,5.939,1.976c.127.122.418.071.832.128-.419-.711-.723-1.208-1.008-1.715a14.2,14.2,0,0,1-2.166-5.611,4.059,4.059,0,0,1,.228-1.73,1.679,1.679,0,0,1,2.525-1.012,2.249,2.249,0,0,0,2.542-.16,6.556,6.556,0,0,1,1.022-.5H118.8a10.973,10.973,0,0,0,1.725.869,2.381,2.381,0,0,0,1.355-.055,12.9,12.9,0,0,0,1.7-.813h1.5c.566.279,1.138.547,1.7.842a1.707,1.707,0,0,0,1.568-.037c1.8-.774,3.19.062,3.1,2.038a10.209,10.209,0,0,1-.85,3.469c-.679,1.579-1.593,3.057-2.424,4.61a3.76,3.76,0,0,1,1.179,3.329c-.023.172.205.423.376.568.989.838,2.007,1.641,2.993,2.483.627.536.708,1.1.3,1.6s-1.022.493-1.673-.045c-.894-.739-1.781-1.487-2.688-2.21-.149-.119-.458-.24-.574-.168a10.028,10.028,0,0,1-4.7,1.232,25.652,25.652,0,0,1-8.263-.5,1.987,1.987,0,0,1-.641-.216c-.666-.458-1.154-.22-1.724.249-4.635,3.813-8.634,8.148-11.23,13.637a23.361,23.361,0,0,0-2.367,10.482c.027,1.637.067,1.548,1.533,2.151a43.024,43.024,0,0,1,5.2,2.486,15.687,15.687,0,0,0,6.565,2.025q4.814.445,9.607,1.105a6.375,6.375,0,0,1,5.459,6.425c0,.243,0,.487,0,.825,1.474-.645,2.863-1.247,4.247-1.858,2.636-1.163,5.274-2.321,7.9-3.51a2.053,2.053,0,0,0,.844-.721,17.3,17.3,0,0,0,2.509-11.3c-.628-6.356-3.657-11.578-7.782-16.265-.105-.12-.217-.234-.317-.357a1.069,1.069,0,0,1,.018-1.528.993.993,0,0,1,1.506.133c.962,1.122,1.934,2.242,2.812,3.429a29.582,29.582,0,0,1,5.5,12.051,21.007,21.007,0,0,1-1.165,12.5c-.033.078-.054.162-.122.368.607-.253,1.114-.476,1.628-.677,2.812-1.1,5.412.141,6.11,2.91a4.3,4.3,0,0,1-1.839,4.635q-9.234,5.866-18.47,11.729a12.569,12.569,0,0,1-5.172,1.967.82.82,0,0,0-.234.116Zm18.081-13.054c0-.519,0-.968,0-1.417a4.137,4.137,0,0,0-3.389-4.259c-2.191-.368-4.411-.558-6.618-.825-1.892-.229-3.793-.4-5.675-.7a19.2,19.2,0,0,1-5.622-2.35,42.926,42.926,0,0,0-4.9-2.177,12.648,12.648,0,0,0-4.993-.649c0,.942.016,1.827,0,2.711a1.034,1.034,0,0,1-1.29,1.1,1.061,1.061,0,0,1-.785-1.2c.006-1.686.009-3.372,0-5.057-.006-.92-.318-1.22-1.243-1.224-1.364-.007-2.729-.009-4.093,0-.845.006-1.173.327-1.173,1.144q0,11.721,0,23.442c0,.8.312,1.1,1.118,1.1,1.319.006,2.638,0,3.957,0,1.211,0,1.436-.221,1.437-1.422q0-6.185,0-12.37c0-.273-.075-.607.052-.8.212-.329.536-.757.857-.8a1.542,1.542,0,0,1,1.026.561c.164.17.138.556.139.846.008,3.281.017,6.561-.006,9.841a.89.89,0,0,0,.684,1.027c3.261,1.179,6.482,2.47,9.759,3.6a13.663,13.663,0,0,0,4.1.838c5.046.1,10.1.05,15.144.033a9.931,9.931,0,0,0,5.376-1.491q9.507-6.01,19-12.046a2.214,2.214,0,0,0,.762-2.78,2.045,2.045,0,0,0-2.441-1.245,8.928,8.928,0,0,0-1.474.512c-5.937,2.611-11.867,5.239-17.809,7.84a3.751,3.751,0,0,1-1.44.3c-3.5.025-7,.015-10.505.01a2.829,2.829,0,0,1-.805-.082.935.935,0,0,1-.7-1.037.919.919,0,0,1,.829-.933,4.659,4.659,0,0,1,.747-.045q4.537,0,9.073,0Zm4.047-54.407a3.9,3.9,0,0,1-4.382-.257,1.373,1.373,0,0,0-1.606.054,3.839,3.839,0,0,1-4.641.016,1.593,1.593,0,0,0-1.849.03,3.377,3.377,0,0,1-1.353.6,23.683,23.683,0,0,1-2.73-.089,6.6,6.6,0,0,0,.129,1.015,21.372,21.372,0,0,0,3.028,6.072.759.759,0,0,0,.423.281,19.121,19.121,0,0,0,9.432-.139.576.576,0,0,0,.3-.234,21.991,21.991,0,0,0,3.023-5.927A12.891,12.891,0,0,0,129.467,158.539Zm-8.641,13.381c1.752-.274,3.563-.549,5.37-.845a1.219,1.219,0,0,0,1.069-1.16c.141-1.185-.58-1.811-1.772-1.619-1.318.213-2.64.433-3.969.538a19.78,19.78,0,0,1-5.673-.545,1.21,1.21,0,0,0-1.6,1.247,1.351,1.351,0,0,0,1.295,1.606C117.264,171.437,118.994,171.655,120.826,171.92Z" fill="#6836bf"/>
      <path id="Trazado_198045" data-name="Trazado 198045" d="M263.68,275.7c0-.6-.022-1.24.005-1.879a1.4,1.4,0,0,1,1.343-1.452,1.443,1.443,0,0,1,1.422,1.489c.029.579-.171,1.314.113,1.695s1.062.314,1.576.55a18.2,18.2,0,0,1,2.574,1.363,1.359,1.359,0,0,1,.4,2.061,1.439,1.439,0,0,1-2.039.185c-.794-.466-1.637-.848-2.622-1.351,0,3.037-.007,5.788.017,8.54a.743.743,0,0,0,.379.507,10.047,10.047,0,0,0,1.274.5c5.867,2.062,6.362,8.613,2.752,12.452a8.11,8.11,0,0,1-4.424,2.407c0,.519,0,1.064,0,1.61,0,1.335-.433,1.958-1.367,1.977-.977.02-1.409-.592-1.413-2.005,0-.483,0-.966,0-1.494a10.816,10.816,0,0,1-5.492-1.785c-.9-.588-1.159-1.319-.717-2.07a1.424,1.424,0,0,1,2.146-.329,6.874,6.874,0,0,0,3.992,1.29c.024-.246.067-.478.068-.71,0-3.092-.014-6.183.017-9.275a1.039,1.039,0,0,0-.757-1.161,14.891,14.891,0,0,1-1.779-.936,5.719,5.719,0,0,1-3.079-6.384,6.485,6.485,0,0,1,4.686-5.459c.231-.076.469-.132.7-.2A1.349,1.349,0,0,0,263.68,275.7Zm2.818,24.017c1.928-.223,3.758-2.446,3.832-4.635A4.314,4.314,0,0,0,266.5,290.4ZM263.62,278.8a3.787,3.787,0,0,0-2.851,3.754c-.017,1.683.907,2.783,2.851,3.345Z" transform="translate(-144.334 -99.283)" fill="#6836bf"/>
    </g>
  </g>
</svg>
