<svg xmlns="http://www.w3.org/2000/svg" xmlns:xlink="http://www.w3.org/1999/xlink" width="190" height="112" viewBox="0 0 190 112">
  <defs>
    <linearGradient id="linear-gradient" x1="0.5" x2="0.5" y2="1" gradientUnits="objectBoundingBox">
      <stop offset="0" stop-color="#f7ca2e" stop-opacity="0"/>
      <stop offset="0.091" stop-color="#f7ca2e" stop-opacity="0.129"/>
      <stop offset="0.283" stop-color="#f7ca2e" stop-opacity="0.388"/>
      <stop offset="0.465" stop-color="#f7ca2e" stop-opacity="0.612"/>
      <stop offset="0.633" stop-color="#f7ca2e" stop-opacity="0.78"/>
      <stop offset="0.784" stop-color="#f7ca2e" stop-opacity="0.902"/>
      <stop offset="0.911" stop-color="#f7ca2e" stop-opacity="0.969"/>
      <stop offset="1" stop-color="#f7ca2e"/>
    </linearGradient>
    <linearGradient id="linear-gradient-2" x1="0.5" x2="0.5" y2="1" gradientUnits="objectBoundingBox">
      <stop offset="0" stop-color="#b13e8d" stop-opacity="0"/>
      <stop offset="0.091" stop-color="#b13e8d" stop-opacity="0.129"/>
      <stop offset="0.283" stop-color="#b13e8d" stop-opacity="0.388"/>
      <stop offset="0.465" stop-color="#b13e8d" stop-opacity="0.612"/>
      <stop offset="0.633" stop-color="#b13e8d" stop-opacity="0.78"/>
      <stop offset="0.784" stop-color="#b13e8d"/>
      <stop offset="0.911" stop-color="#b13e8d" stop-opacity="0.969"/>
      <stop offset="1" stop-color="#b13e8d"/>
    </linearGradient>
    <filter id="Rectángulo_40720" x="41" y="4" width="108" height="108" filterUnits="userSpaceOnUse">
      <feOffset dy="3" input="SourceAlpha"/>
      <feGaussianBlur stdDeviation="3" result="blur"/>
      <feFlood flood-opacity="0.161"/>
      <feComposite operator="in" in2="blur"/>
      <feComposite in="SourceGraphic"/>
    </filter>
  </defs>
  <g id="Grupo_137136" data-name="Grupo 137136" transform="translate(-180 -399)">
    <rect id="Rectángulo_40586" data-name="Rectángulo 40586" width="190" height="20" transform="translate(180 444)" fill="none"/>
    <g id="Grupo_108405" data-name="Grupo 108405" transform="translate(209.5 463)">
      <path id="Rectángulo_5242" data-name="Rectángulo 5242" d="M0,0H12a0,0,0,0,1,0,0V43.333a3,3,0,0,1-3,3H3a3,3,0,0,1-3-3V0A0,0,0,0,1,0,0Z" transform="translate(0 0)" fill="url(#linear-gradient)"/>
    </g>
    <g id="Grupo_108406" data-name="Grupo 108406" transform="translate(340 451) rotate(180)">
      <path id="Rectángulo_5242-2" data-name="Rectángulo 5242" d="M0,0H12a0,0,0,0,1,0,0V49a3,3,0,0,1-3,3H3a3,3,0,0,1-3-3V0A0,0,0,0,1,0,0Z" transform="translate(0 0)" fill="url(#linear-gradient-2)"/>
    </g>
    <g transform="matrix(1, 0, 0, 1, 180, 399)" filter="url(#Rectángulo_40720)">
      <path id="Rectángulo_40720-2" data-name="Rectángulo 40720" d="M10,0H80A10,10,0,0,1,90,10V90a0,0,0,0,1,0,0H10A10,10,0,0,1,0,80V10A10,10,0,0,1,10,0Z" transform="translate(50 10)" fill="#f6f6f6"/>
    </g>
    <g id="Grupo_137137" data-name="Grupo 137137" transform="translate(674.153 268.211)">
      <path id="Trazado_198049" data-name="Trazado 198049" d="M-383.526,216.454a13.435,13.435,0,0,0-.111-1.806A2.211,2.211,0,0,0-385.574,213c-.15-.015-.3-.01-.452-.01q-11.147,0-22.295,0a2.229,2.229,0,0,0-2.353,1.6,11.311,11.311,0,0,0-.129,1.809c.339.022.559.046.779.048.552.006,1.1,0,1.657,0,.813,0,1.159.223,1.171.732s-.348.761-1.139.764c-.929,0-1.858,0-2.787,0-.1,0-.2,0-.3,0-.573-.031-.874-.252-.88-.808a15.653,15.653,0,0,1,.123-2.774,3.621,3.621,0,0,1,3.434-2.86c1.152-.031,2.306-.006,3.549-.006l2.249-7.981h-1.068q-13.332,0-26.664.008a3.992,3.992,0,0,1-2.967-1.029,3.6,3.6,0,0,1-1.17-2.678q0-4.445,0-8.889,0-16.8-.007-33.6a4.128,4.128,0,0,1,.657-2.5,3.71,3.71,0,0,1,2.987-1.635c.1,0,.2,0,.3,0q33.706,0,67.412,0a3.629,3.629,0,0,1,3.4,1.827,3.93,3.93,0,0,1,.533,1.842c.035,8.111.024,16.221.025,24.332,0,.1,0,.2,0,.3a.705.705,0,0,1-.723.715.716.716,0,0,1-.751-.695,5.416,5.416,0,0,1-.012-.677c0-7.809-.027-15.619.021-23.428a2.556,2.556,0,0,0-2.738-2.735q-33.442.043-66.885,0a2.559,2.559,0,0,0-2.74,2.732q.056,20.98,0,41.96a2.509,2.509,0,0,0,2.636,2.664q33.555-.046,67.111,0a2.478,2.478,0,0,0,2.614-2.61c-.056-3.791-.02-7.583-.019-11.375a3.323,3.323,0,0,1,.024-.676.68.68,0,0,1,.748-.6.666.666,0,0,1,.706.637,5.041,5.041,0,0,1,.011.6c0,3.817-.069,7.635.028,11.45a3.969,3.969,0,0,1-4.11,4.081c-8.887-.064-17.775-.025-26.664-.025h-1.116l2.239,7.979c1.2,0,2.353-.027,3.5.007a3.539,3.539,0,0,1,3.223,2.109,7.055,7.055,0,0,1,.357,3.7.68.68,0,0,1-.724.634c-.175.007-.352,0-.527,0H-401.38a4.346,4.346,0,0,1-.6-.012.7.7,0,0,1-.657-.773.676.676,0,0,1,.657-.7c.249-.024.5-.015.752-.015h17.7Zm-20.076-5.031h12.879l-2.234-7.853h-8.412Z" transform="translate(0 0)" fill="#6836bf"/>
      <path id="Trazado_198050" data-name="Trazado 198050" d="M-268.306,219.057a14.934,14.934,0,0,1,14.942-14.923,14.9,14.9,0,0,1,14.857,14.912,14.862,14.862,0,0,1-14.924,14.9A14.888,14.888,0,0,1-268.306,219.057Zm9.057-11.843c-3.214,1.235-7.5,5.744-7.443,12.012.051,5.449,3.72,9.983,6.718,11.255a3.148,3.148,0,0,0,.189-.3c1.73-3.537,3.451-7.078,5.193-10.609a1.353,1.353,0,0,0-.01-1.217q-2.173-5.245-4.333-10.494C-259.028,207.638-259.146,207.425-259.249,207.214ZM-240.3,217.1l-11.931,2.536,5.236,11.09C-241.638,227.938-239.257,221.529-240.3,217.1Zm-18.249,14.3a13.353,13.353,0,0,0,10.133.042l-4.99-10.571Zm15.269-21.132-7.523,7.457,10.336-2.186A12.873,12.873,0,0,0-243.28,210.274Z" transform="translate(-133.009 -40.688)" fill="#6836bf"/>
      <path id="Trazado_198051" data-name="Trazado 198051" d="M-409.472,216.233h62.657V178.574h-62.657v.828q0,3.465,0,6.93a1.313,1.313,0,0,1-.1.726,1.255,1.255,0,0,1-.755.477c-.34.034-.59-.245-.628-.621-.022-.224-.018-.451-.018-.677q0-3.917,0-7.835c0-1.294.077-1.371,1.361-1.371h57.62c1.883,0,3.766,0,5.649,0,.928,0,1.091.167,1.091,1.111q0,19.247,0,38.495c0,.978-.155,1.135-1.148,1.136q-5.913.008-11.826,0h-51.143c-1.6,0-1.606,0-1.606-1.585q0-11.3,0-22.6c0-.251,0-.5.008-.753a.671.671,0,0,1,.628-.718.709.709,0,0,1,.824.6,3.592,3.592,0,0,1,.04.824q0,10.848,0,21.7Z" transform="translate(-19.05 -19.039)" fill="#6836bf"/>
      <path id="Trazado_198052" data-name="Trazado 198052" d="M-370.331,212.568a5.68,5.68,0,0,1-1.228-4.154c.037-1.253.03-2.509,0-3.763a2.236,2.236,0,0,1,2.467-2.459c1,.058,2.007-.012,3.009.018a3.907,3.907,0,0,0,2.295-.569c.19-.121.4-.211.6-.316,1.112-.583,1.452-.438,1.848.777a4.741,4.741,0,0,1-.559,4.241,1.967,1.967,0,0,0-.354,1.259c.021.35-.013.7.007,1.053a5.076,5.076,0,0,1-1.2,3.893c.281.083.487.154.7.2a5.255,5.255,0,0,1,4.1,5.1c.015,1.505,0,3.011,0,4.516,0,.1.036.225-.01.3a2.052,2.052,0,0,1-.554.717.568.568,0,0,1-.8-.349c-.166-.475-.507-.494-.89-.494q-6.02,0-12.041,0c-.412,0-.764.033-.976.514a.925.925,0,0,1-.741.344.612.612,0,0,1-.575-.674,46.621,46.621,0,0,1,.1-5.786,4.921,4.921,0,0,1,3.856-4.158C-371,212.7-370.729,212.655-370.331,212.568Zm.38-5.186a20.677,20.677,0,0,0,.019,2.568,3.052,3.052,0,0,0,2.944,2.629,3.024,3.024,0,0,0,3.07-2.287,20.028,20.028,0,0,0,.209-2.91Zm7.162-4.406c-.218.094-.356.141-.482.21a4.868,4.868,0,0,1-2.592.6c-1.049-.04-2.1-.016-3.152-.006-.736.007-.855.137-.879.888,0,.15.008.3,0,.45-.031.439.153.641.609.638q2.664-.016,5.329,0a.957.957,0,0,0,.926-.625A3.535,3.535,0,0,0-362.79,202.976Z" transform="translate(-47.576 -38.181)" fill="#6836bf"/>
      <path id="Trazado_198053" data-name="Trazado 198053" d="M-366.819,325.258q-3.462,0-6.924,0a3.405,3.405,0,0,1-.675-.027.7.7,0,0,1-.626-.8.655.655,0,0,1,.687-.652c.2-.011.4-.011.6-.011h14c.2,0,.4,0,.6.014a.676.676,0,0,1,.676.674.7.7,0,0,1-.594.759,2.722,2.722,0,0,1-.672.041Q-363.281,325.261-366.819,325.258Z" transform="translate(-47.747 -136.248)" fill="#6836bf"/>
      <path id="Trazado_198054" data-name="Trazado 198054" d="M-366.59,340.927h6.924c.226,0,.453-.005.677.017.411.04.7.305.638.685a1.306,1.306,0,0,1-.533.714c-.153.114-.434.071-.657.071q-7.074,0-14.149,0a1.468,1.468,0,0,1-.794-.127.939.939,0,0,1-.378-.711c.026-.225.3-.472.533-.6a1.459,1.459,0,0,1,.666-.041Q-370.127,340.925-366.59,340.927Z" transform="translate(-47.893 -149.941)" fill="#6836bf"/>
      <path id="Trazado_198055" data-name="Trazado 198055" d="M-66.458,305.759a.763.763,0,0,1-.749.775.8.8,0,0,1-.729-.73.723.723,0,0,1,.683-.751A.71.71,0,0,1-66.458,305.759Z" transform="translate(-293.058 -121.298)" fill="#6836bf"/>
      <path id="Trazado_198056" data-name="Trazado 198056" d="M-289.154,469.092a.753.753,0,0,1-.757-.688.735.735,0,0,1,.722-.793.731.731,0,0,1,.757.757A.751.751,0,0,1-289.154,469.092Z" transform="translate(-115.75 -251.145)" fill="#6836bf"/>
      <path id="Trazado_198057" data-name="Trazado 198057" d="M-410.219,238.5a.742.742,0,0,1-.7-.81.693.693,0,0,1,.744-.67.776.776,0,0,1,.728.718A.811.811,0,0,1-410.219,238.5Z" transform="translate(-19.095 -66.953)" fill="#6836bf"/>
    </g>
  </g>
</svg>
