<svg xmlns="http://www.w3.org/2000/svg" xmlns:xlink="http://www.w3.org/1999/xlink" width="190" height="112" viewBox="0 0 190 112">
  <defs>
    <linearGradient id="linear-gradient" x1="0.5" x2="0.5" y2="1" gradientUnits="objectBoundingBox">
      <stop offset="0" stop-color="#f7ca2e" stop-opacity="0"/>
      <stop offset="0.091" stop-color="#f7ca2e" stop-opacity="0.129"/>
      <stop offset="0.283" stop-color="#f7ca2e" stop-opacity="0.388"/>
      <stop offset="0.465" stop-color="#f7ca2e" stop-opacity="0.612"/>
      <stop offset="0.633" stop-color="#f7ca2e" stop-opacity="0.78"/>
      <stop offset="0.784" stop-color="#f7ca2e" stop-opacity="0.902"/>
      <stop offset="0.911" stop-color="#f7ca2e" stop-opacity="0.969"/>
      <stop offset="1" stop-color="#f7ca2e"/>
    </linearGradient>
    <linearGradient id="linear-gradient-2" x1="0.5" x2="0.5" y2="1" gradientUnits="objectBoundingBox">
      <stop offset="0" stop-color="#b13e8d" stop-opacity="0"/>
      <stop offset="0.091" stop-color="#b13e8d" stop-opacity="0.129"/>
      <stop offset="0.283" stop-color="#b13e8d" stop-opacity="0.388"/>
      <stop offset="0.465" stop-color="#b13e8d" stop-opacity="0.612"/>
      <stop offset="0.633" stop-color="#b13e8d" stop-opacity="0.78"/>
      <stop offset="0.784" stop-color="#b13e8d"/>
      <stop offset="0.911" stop-color="#b13e8d" stop-opacity="0.969"/>
      <stop offset="1" stop-color="#b13e8d"/>
    </linearGradient>
    <filter id="Trazado_197967" x="41" y="4" width="108" height="108" filterUnits="userSpaceOnUse">
      <feOffset dy="3" input="SourceAlpha"/>
      <feGaussianBlur stdDeviation="3" result="blur"/>
      <feFlood flood-opacity="0.161"/>
      <feComposite operator="in" in2="blur"/>
      <feComposite in="SourceGraphic"/>
    </filter>
  </defs>
  <g id="Grupo_137870" data-name="Grupo 137870" transform="translate(-180 -399)">
    <rect id="Rectángulo_40586" data-name="Rectángulo 40586" width="190" height="20" transform="translate(180 444)" fill="none"/>
    <g id="Grupo_108405" data-name="Grupo 108405" transform="translate(209.5 463)">
      <path id="Rectángulo_5242" data-name="Rectángulo 5242" d="M0,0H12a0,0,0,0,1,0,0V43.333a3,3,0,0,1-3,3H3a3,3,0,0,1-3-3V0A0,0,0,0,1,0,0Z" transform="translate(0 0)" fill="url(#linear-gradient)"/>
    </g>
    <g id="Grupo_108406" data-name="Grupo 108406" transform="translate(340 451) rotate(180)">
      <path id="Rectángulo_5242-2" data-name="Rectángulo 5242" d="M0,0H12a0,0,0,0,1,0,0V49a3,3,0,0,1-3,3H3a3,3,0,0,1-3-3V0A0,0,0,0,1,0,0Z" transform="translate(0 0)" fill="url(#linear-gradient-2)"/>
    </g>
    <g transform="matrix(1, 0, 0, 1, 180, 399)" filter="url(#Trazado_197967)">
      <path id="Trazado_197967-2" data-name="Trazado 197967" d="M10,0H80A10,10,0,0,1,90,10V90H10A10,10,0,0,1,0,80V10A10,10,0,0,1,10,0Z" transform="translate(50 10)" fill="#f6f6f6"/>
    </g>
    <g id="Grupo_138062" data-name="Grupo 138062" transform="translate(1980.388 273.129)">
      <path id="Trazado_198693" data-name="Trazado 198693" d="M-1704.025,145.871c.275.092.548.19.825.274a7.3,7.3,0,0,1,3.052,12.083,1.807,1.807,0,0,0-.563,2.2h15.658c.215-.784.614-1.438,1.553-1.422.895.015,1.317.612,1.488,1.475,1.039,0,2.039-.043,3.035.009a4.313,4.313,0,0,1,4.2,4.4,4.394,4.394,0,0,1-4.4,4.317c-.929.022-1.858,0-2.875,0,0,1.421-.015,2.78.023,4.137,0,.136.309.35.5.382a13.11,13.11,0,0,1,10.773,9.957,13.12,13.12,0,0,1-11.507,16.07,13.111,13.111,0,0,1-14.372-13.708,13.137,13.137,0,0,1,10.985-12.28c.515-.075.685-.24.669-.762-.037-1.227-.012-2.456-.012-3.74H-1700.5c.314,10.65.627,21.276.944,32h1.656c.888,0,1.777-.018,2.665.005a4.393,4.393,0,0,1,4.436,4.426c.014.449,0,.9,0,1.414.957,0,1.839,0,2.722,0a4.372,4.372,0,0,1,4.558,4.561c0,.8,0,1.595,0,2.392-.005,1.263-.527,1.794-1.78,1.795q-6.082,0-12.165,0h-27.814c-1.535,0-1.982-.452-1.982-2,0-.82-.013-1.641.005-2.461a4.361,4.361,0,0,1,4.282-4.281c.973-.021,1.947,0,2.993,0,0-.5-.008-.923,0-1.349a4.4,4.4,0,0,1,4.508-4.493c1.385-.022,2.771,0,4.25,0,.33-10.683.658-21.308.988-32h-15.553c0,1.37-.015,2.73.023,4.089,0,.131.32.336.514.368a13.1,13.1,0,0,1,10.9,10.64,13.134,13.134,0,0,1-11.6,15.381,13.074,13.074,0,0,1-14.315-11.335,1.45,1.45,0,0,0-.119-.306v-2.734a4.558,4.558,0,0,0,.13-.523,13.143,13.143,0,0,1,10.162-10.963c1.362-.287,1.362-.287,1.362-1.672v-3.011c-1.046,0-1.979.024-2.91,0a4.406,4.406,0,0,1-4.357-4.293,4.317,4.317,0,0,1,4.19-4.422c1-.056,2-.009,3.012-.009.213-.84.608-1.464,1.509-1.477.937-.013,1.343.63,1.551,1.415h15.79c.226-1.25.175-1.427-.635-2.261a7.274,7.274,0,0,1,2.122-11.616c.589-.276,1.225-.453,1.839-.676Zm-23.285,51.021a10.2,10.2,0,0,0,10.261-10.23,10.233,10.233,0,0,0-10.132-10.165,10.232,10.232,0,0,0-10.3,10.142A10.2,10.2,0,0,0-1727.31,196.892Zm43.756.006a10.21,10.21,0,0,0,10.247-10.108,10.246,10.246,0,0,0-10.077-10.293,10.231,10.231,0,0,0-10.348,10.156A10.2,10.2,0,0,0-1683.554,196.9Zm-23.533-36.585q-.61,20.486-1.218,40.9h5.826c-.437-13.665-.872-27.268-1.308-40.9-.574.055-1.091.142-1.607.143S-1706.435,160.371-1707.086,160.313Zm20.6,52.617c.242-2.159-.132-2.935-2.412-2.925-11.109.047-22.218.021-33.327.023a5.361,5.361,0,0,0-.884.043,1.3,1.3,0,0,0-1.183,1.15,13.826,13.826,0,0,0-.014,1.709Zm-30.5-5.85h23.249c0-.263,0-.487,0-.71,0-1.8-.353-2.154-2.154-2.154-6.219,0-12.439.041-18.658-.02-2.488-.025-2.568.731-2.488,2.653A1.6,1.6,0,0,0-1716.988,207.08Zm11.569-49.557a4.356,4.356,0,0,0,4.4-4.351,4.4,4.4,0,0,0-4.379-4.391,4.4,4.4,0,0,0-4.365,4.338A4.354,4.354,0,0,0-1705.42,157.523Zm-4.715,5.883h-15.621v2.825h15.621Zm9.485,2.831h15.621v-2.812h-15.621Zm18.63.031c1.053,0,2.027.026,3-.009a1.4,1.4,0,0,0,1.325-1.314,1.325,1.325,0,0,0-1.04-1.473c-1.088-.093-2.19-.025-3.284-.025Zm-46.76,0v-2.878c-1.042,0-2.04-.04-3.034.013a1.4,1.4,0,0,0-1.26,1.452,1.383,1.383,0,0,0,1.308,1.4C-1730.79,166.3-1729.814,166.266-1728.779,166.266Z" fill="#6836bf"/>
      <path id="Trazado_198694" data-name="Trazado 198694" d="M-1696.452,350.018a3.482,3.482,0,0,1,.523-.9q3.521-3.576,7.09-7.1a1.441,1.441,0,0,1,2.177-.077,1.47,1.47,0,0,1-.107,2.133q-3.56,3.586-7.145,7.147a1.393,1.393,0,0,1-1.622.365A1.515,1.515,0,0,1-1696.452,350.018Z" transform="translate(-35.912 -159.889)" fill="#6836bf"/>
      <path id="Trazado_198695" data-name="Trazado 198695" d="M-1658.3,381.806a2.149,2.149,0,0,1-2.141-2.187,2.183,2.183,0,0,1,2.165-2.179,2.238,2.238,0,0,1,2.2,2.24A2.191,2.191,0,0,1-1658.3,381.806Z" transform="translate(-65.345 -189.284)" fill="#6836bf"/>
      <path id="Trazado_198696" data-name="Trazado 198696" d="M-1696.126,339.75a2.179,2.179,0,0,1-2.166,2.175,2.22,2.22,0,0,1-2.2-2.165,2.2,2.2,0,0,1,2.217-2.207A2.177,2.177,0,0,1-1696.126,339.75Z" transform="translate(-32.613 -156.681)" fill="#6836bf"/>
      <path id="Trazado_198697" data-name="Trazado 198697" d="M-1444.172,328.226c-.005,1.227-.516,1.863-1.34,1.911a1.464,1.464,0,0,1-1.559-1.452,1.488,1.488,0,0,0-1.043-1.38,1.373,1.373,0,0,0-1.5.4,1.37,1.37,0,0,0-.271,1.524,1.552,1.552,0,0,0,1.534.923,4.332,4.332,0,0,1,3.961,3.134,4.342,4.342,0,0,1-1.538,4.694c-.2.151-.444.243-.625.409a2.473,2.473,0,0,0-.613.716,1.461,1.461,0,0,1-1.362.968,1.448,1.448,0,0,1-1.409-.995,1.489,1.489,0,0,0-.572-.663,4.452,4.452,0,0,1-2.4-3.45c-.151-1.361.759-2.207,1.894-1.822a1.484,1.484,0,0,1,1.006,1.4,1.436,1.436,0,0,0,1.795,1.373,1.456,1.456,0,0,0,1.12-1.379,1.441,1.441,0,0,0-1.074-1.412,3.655,3.655,0,0,0-.674-.095,4.35,4.35,0,0,1-3.945-3.412,4.431,4.431,0,0,1,2.2-4.807,1.833,1.833,0,0,0,.663-.749,1.466,1.466,0,0,1,1.382-.93,1.454,1.454,0,0,1,1.37.947,1.72,1.72,0,0,0,.612.713A4.484,4.484,0,0,1-1444.172,328.226Z" transform="translate(-234.978 -144.896)" fill="#6836bf"/>
    </g>
  </g>
</svg>
