<svg xmlns="http://www.w3.org/2000/svg" xmlns:xlink="http://www.w3.org/1999/xlink" width="190" height="112" viewBox="0 0 190 112">
  <defs>
    <linearGradient id="linear-gradient" x1="0.5" x2="0.5" y2="1" gradientUnits="objectBoundingBox">
      <stop offset="0" stop-color="#f7ca2e" stop-opacity="0"/>
      <stop offset="0.091" stop-color="#f7ca2e" stop-opacity="0.129"/>
      <stop offset="0.283" stop-color="#f7ca2e" stop-opacity="0.388"/>
      <stop offset="0.465" stop-color="#f7ca2e" stop-opacity="0.612"/>
      <stop offset="0.633" stop-color="#f7ca2e" stop-opacity="0.78"/>
      <stop offset="0.784" stop-color="#f7ca2e" stop-opacity="0.902"/>
      <stop offset="0.911" stop-color="#f7ca2e" stop-opacity="0.969"/>
      <stop offset="1" stop-color="#f7ca2e"/>
    </linearGradient>
    <linearGradient id="linear-gradient-2" x1="0.5" x2="0.5" y2="1" gradientUnits="objectBoundingBox">
      <stop offset="0" stop-color="#b13e8d" stop-opacity="0"/>
      <stop offset="0.091" stop-color="#b13e8d" stop-opacity="0.129"/>
      <stop offset="0.283" stop-color="#b13e8d" stop-opacity="0.388"/>
      <stop offset="0.465" stop-color="#b13e8d" stop-opacity="0.612"/>
      <stop offset="0.633" stop-color="#b13e8d" stop-opacity="0.78"/>
      <stop offset="0.784" stop-color="#b13e8d"/>
      <stop offset="0.911" stop-color="#b13e8d" stop-opacity="0.969"/>
      <stop offset="1" stop-color="#b13e8d"/>
    </linearGradient>
    <filter id="Trazado_197967" x="41" y="4" width="108" height="108" filterUnits="userSpaceOnUse">
      <feOffset dy="3" input="SourceAlpha"/>
      <feGaussianBlur stdDeviation="3" result="blur"/>
      <feFlood flood-opacity="0.161"/>
      <feComposite operator="in" in2="blur"/>
      <feComposite in="SourceGraphic"/>
    </filter>
  </defs>
  <g id="Grupo_137879" data-name="Grupo 137879" transform="translate(-180 -399)">
    <rect id="Rectángulo_40586" data-name="Rectángulo 40586" width="190" height="20" transform="translate(180 444)" fill="none"/>
    <g id="Grupo_108405" data-name="Grupo 108405" transform="translate(209.5 463)">
      <path id="Rectángulo_5242" data-name="Rectángulo 5242" d="M0,0H12a0,0,0,0,1,0,0V43.333a3,3,0,0,1-3,3H3a3,3,0,0,1-3-3V0A0,0,0,0,1,0,0Z" transform="translate(0 0)" fill="url(#linear-gradient)"/>
    </g>
    <g id="Grupo_108406" data-name="Grupo 108406" transform="translate(340 451) rotate(180)">
      <path id="Rectángulo_5242-2" data-name="Rectángulo 5242" d="M0,0H12a0,0,0,0,1,0,0V49a3,3,0,0,1-3,3H3a3,3,0,0,1-3-3V0A0,0,0,0,1,0,0Z" transform="translate(0 0)" fill="url(#linear-gradient-2)"/>
    </g>
    <g transform="matrix(1, 0, 0, 1, 180, 399)" filter="url(#Trazado_197967)">
      <path id="Trazado_197967-2" data-name="Trazado 197967" d="M10,0H80A10,10,0,0,1,90,10V90H10A10,10,0,0,1,0,80V10A10,10,0,0,1,10,0Z" transform="translate(50 10)" fill="#f6f6f6"/>
    </g>
    <g id="Grupo_137034" data-name="Grupo 137034" transform="translate(-641.862 489.327)">
      <path id="Trazado_197645" data-name="Trazado 197645" d="M941.465-70.16a1.737,1.737,0,0,1,1.015,1.629c.147,2.337.347,4.671.532,7.075,1.307.1,2.592.208,3.878.308,1.158.09,2.315.183,3.474.262a1.336,1.336,0,0,1,1.259.885,1.315,1.315,0,0,1-.359,1.5c-2.012,2.015-4.015,4.038-6.052,6.027a5.172,5.172,0,0,1-3.782,1.471c-1.382-.01-2.763,0-4.216,0,6.673,8.744,8.729,18.382,5.579,28.914A30.205,30.205,0,0,1,929.477-4.855a31.051,31.051,0,0,1-40.22-6.492,31.012,31.012,0,0,1,.75-40.726,31.094,31.094,0,0,1,42.544-3.511,4.6,4.6,0,0,0,.059-.528c-.01-1.253-.028-2.505-.042-3.758a5.126,5.126,0,0,1,1.473-3.78c1.992-2.034,4.015-4.037,6.03-6.049a6.562,6.562,0,0,1,.575-.461ZM920.718-37.038a9.572,9.572,0,0,1-1.924,13.351,9.481,9.481,0,0,1-12.37-.872A9.458,9.458,0,0,1,905.4-36.806a9.222,9.222,0,0,1,5.419-3.681,9.375,9.375,0,0,1,7.714,1.412l3.189-3.188A13.714,13.714,0,0,0,911.2-45.11,13.93,13.93,0,0,0,899.464-34.2a13.81,13.81,0,0,0,6.088,14.627,13.59,13.59,0,0,0,13.609.859c.967-.439,1.745-.276,2.119.476.4.8.052,1.518-.955,2a16.435,16.435,0,0,1-9.1,1.543,16.684,16.684,0,0,1-14.753-15.4,16.7,16.7,0,0,1,20.867-17.335,16.619,16.619,0,0,1,6.3,3.2l3.163-3.174a20.827,20.827,0,0,0-12.149-4.973,21.073,21.073,0,0,0-8.538,1.119,1.382,1.382,0,0,1-1.891-.7,1.391,1.391,0,0,1,1.041-1.891,23.756,23.756,0,0,1,17.764.836,23.4,23.4,0,0,1,5.678,3.635l3.145-3.139a28.289,28.289,0,0,0-39.4,1.81,28.358,28.358,0,0,0,1.4,40.239A28.31,28.31,0,0,0,933.977-12.1a28.181,28.181,0,0,0,.083-38.214L930.931-47.2c.013.016.066.089.125.158a23.515,23.515,0,0,1,5.631,19.552A23.915,23.915,0,0,1,906.954-8.2a23.9,23.9,0,0,1-16.342-31.146,22.877,22.877,0,0,1,3.154-5.948,1.352,1.352,0,0,1,1.811-.425,1.337,1.337,0,0,1,.59,1.653,3.758,3.758,0,0,1-.423.7,20.75,20.75,0,0,0-3.58,15.112,21.074,21.074,0,0,0,24.384,17.814c7.981-1.379,13.582-5.995,16.375-13.564,2.776-7.523,1.415-14.553-3.591-20.845-.136-.171-.292-.324-.379-.419L925.8-42.132c.08.1.193.243.3.387a16.533,16.533,0,0,1,3.033,15.128c-.326,1.22-.957,1.7-1.823,1.46-.913-.253-1.146-.952-.8-2.225a13.825,13.825,0,0,0-2.3-12.354c-.128-.175-.285-.329-.368-.423ZM916.639-37a6.707,6.707,0,0,0-8.925,1.658,6.727,6.727,0,0,0,1.048,9.214,6.741,6.741,0,0,0,9.115-.391c2.314-2.316,2.674-6.35.7-8.58-.718.726-1.431,1.451-2.149,2.171-.739.741-1.464,1.5-2.231,2.209a1.34,1.34,0,0,1-1.9-.046,1.356,1.356,0,0,1-.022-1.856c.16-.191.346-.362.522-.539Zm23.314-28.6a1.026,1.026,0,0,0-.249.124c-1.24,1.236-2.526,2.432-3.687,3.738a4,4,0,0,0-.694,1.784,7.465,7.465,0,0,0-.008,1.564c0,.827,0,1.653,0,2.67,1.728-1.721,3.291-3.271,4.839-4.836a.712.712,0,0,0,.127-.5C940.183-62.539,940.068-64.035,939.953-65.59Zm7.216,7.193c-1.51-.108-2.955-.232-4.4-.3a1.312,1.312,0,0,0-.876.326c-1.4,1.36-2.773,2.754-4.15,4.14-.1.1-.185.228-.368.457,1.62,0,3.111.04,4.6-.026a2.04,2.04,0,0,0,1.212-.552C944.517-55.641,945.8-56.992,947.169-58.4Z" transform="translate(0 0)" fill="#6836bf"/>
      <path id="Trazado_197646" data-name="Trazado 197646" d="M972.494,36.876a1.345,1.345,0,0,1,1.3-1.393,1.36,1.36,0,1,1,.058,2.719A1.331,1.331,0,0,1,972.494,36.876Z" transform="translate(-73.97 -86.353)" fill="#6836bf"/>
      <path id="Trazado_197647" data-name="Trazado 197647" d="M1110.578,191.987a1.356,1.356,0,0,1-1.368-1.325,1.341,1.341,0,0,1,1.383-1.372,1.325,1.325,0,0,1,1.327,1.353A1.343,1.343,0,0,1,1110.578,191.987Z" transform="translate(-185.724 -212.078)" fill="#6836bf"/>
    </g>
  </g>
</svg>
