<svg xmlns="http://www.w3.org/2000/svg" xmlns:xlink="http://www.w3.org/1999/xlink" width="190" height="112" viewBox="0 0 190 112">
  <defs>
    <linearGradient id="linear-gradient" x1="0.5" x2="0.5" y2="1" gradientUnits="objectBoundingBox">
      <stop offset="0" stop-color="#f7ca2e" stop-opacity="0"/>
      <stop offset="0.091" stop-color="#f7ca2e" stop-opacity="0.129"/>
      <stop offset="0.283" stop-color="#f7ca2e" stop-opacity="0.388"/>
      <stop offset="0.465" stop-color="#f7ca2e" stop-opacity="0.612"/>
      <stop offset="0.633" stop-color="#f7ca2e" stop-opacity="0.78"/>
      <stop offset="0.784" stop-color="#f7ca2e" stop-opacity="0.902"/>
      <stop offset="0.911" stop-color="#f7ca2e" stop-opacity="0.969"/>
      <stop offset="1" stop-color="#f7ca2e"/>
    </linearGradient>
    <linearGradient id="linear-gradient-2" x1="0.5" x2="0.5" y2="1" gradientUnits="objectBoundingBox">
      <stop offset="0" stop-color="#b13e8d" stop-opacity="0"/>
      <stop offset="0.091" stop-color="#b13e8d" stop-opacity="0.129"/>
      <stop offset="0.283" stop-color="#b13e8d" stop-opacity="0.388"/>
      <stop offset="0.465" stop-color="#b13e8d" stop-opacity="0.612"/>
      <stop offset="0.633" stop-color="#b13e8d" stop-opacity="0.78"/>
      <stop offset="0.784" stop-color="#b13e8d"/>
      <stop offset="0.911" stop-color="#b13e8d" stop-opacity="0.969"/>
      <stop offset="1" stop-color="#b13e8d"/>
    </linearGradient>
    <filter id="Trazado_197967" x="41" y="4" width="108" height="108" filterUnits="userSpaceOnUse">
      <feOffset dy="3" input="SourceAlpha"/>
      <feGaussianBlur stdDeviation="3" result="blur"/>
      <feFlood flood-opacity="0.161"/>
      <feComposite operator="in" in2="blur"/>
      <feComposite in="SourceGraphic"/>
    </filter>
  </defs>
  <g id="Grupo_137880" data-name="Grupo 137880" transform="translate(-180 -399)">
    <rect id="Rectángulo_40586" data-name="Rectángulo 40586" width="190" height="20" transform="translate(180 444)" fill="none"/>
    <g id="Grupo_108405" data-name="Grupo 108405" transform="translate(209.5 463)">
      <path id="Rectángulo_5242" data-name="Rectángulo 5242" d="M0,0H12a0,0,0,0,1,0,0V43.333a3,3,0,0,1-3,3H3a3,3,0,0,1-3-3V0A0,0,0,0,1,0,0Z" transform="translate(0 0)" fill="url(#linear-gradient)"/>
    </g>
    <g id="Grupo_108406" data-name="Grupo 108406" transform="translate(340 451) rotate(180)">
      <path id="Rectángulo_5242-2" data-name="Rectángulo 5242" d="M0,0H12a0,0,0,0,1,0,0V49a3,3,0,0,1-3,3H3a3,3,0,0,1-3-3V0A0,0,0,0,1,0,0Z" transform="translate(0 0)" fill="url(#linear-gradient-2)"/>
    </g>
    <g transform="matrix(1, 0, 0, 1, 180, 399)" filter="url(#Trazado_197967)">
      <path id="Trazado_197967-2" data-name="Trazado 197967" d="M10,0H80A10,10,0,0,1,90,10V90H10A10,10,0,0,1,0,80V10A10,10,0,0,1,10,0Z" transform="translate(50 10)" fill="#f6f6f6"/>
    </g>
    <g id="Grupo_138063" data-name="Grupo 138063" transform="translate(2340.625 947.748)">
      <path id="Trazado_198698" data-name="Trazado 198698" d="M-2086.908-492.525c-.735-.987-1.5-1.926-2.154-2.935a3.039,3.039,0,0,1-.494-1.546c-.034-5.727-.021-11.455-.021-17.182v-1.021c-1.144,0-2.211,0-3.279,0-2.615,0-3.936-1.307-3.895-3.939a17.49,17.49,0,0,1,.3-3.74,7.509,7.509,0,0,1,7.22-5.755c6.524-.056,13.049-.025,19.574-.028,5.882,0,11.766-.013,17.648,0a7.731,7.731,0,0,1,7.871,6.151,9.88,9.88,0,0,1,.2,2.064q.029,4.931-.005,9.862a4.082,4.082,0,0,1-.313,1.481c-.6,1.446-1.274,2.858-1.865,4.3-.107.261.042.629.081.947.005.044.053.088.09.123,1.724,1.671,2.1,3.692,2.069,6.062-.127,8.576-.05,17.156-.05,25.734v1.12c.392,0,.739,0,1.085,0,2.9-.01,5.805-.029,8.708-.029a3.373,3.373,0,0,1,3.643,3.66,25.243,25.243,0,0,1-.342,5.044,7.457,7.457,0,0,1-7.082,5.621c-3.287.061-6.576.026-9.864.027q-16.839,0-33.678,0a7.757,7.757,0,0,1-7.963-6.327,10.353,10.353,0,0,1-.143-1.993c-.01-7.474-.018-14.948.017-22.421a3.955,3.955,0,0,1,.511-1.79C-2088.395-490.219-2087.636-491.349-2086.908-492.525Zm43.343,33.872c-2.17-2.169-2.564-4.665-2.549-7.379.055-10.193-.051-20.387.073-30.579.031-2.567-.322-4.787-2.224-6.608a1.354,1.354,0,0,1-.2-1.7c.735-1.609,1.438-3.232,2.142-4.854a2.141,2.141,0,0,0,.223-.8c.013-3.466.068-6.934-.015-10.4a5.565,5.565,0,0,0-5.332-5.531,5.726,5.726,0,0,0-5.893,5.15,26.8,26.8,0,0,0-.078,2.768,3.325,3.325,0,0,1-.912,2.3,3.722,3.722,0,0,1-2.934,1.08q-12.6-.023-25.193-.008h-.962v1.027c0,5.084.048,10.168-.031,15.251a4.929,4.929,0,0,0,1.306,3.835c.445.454.751,1.04,1.165,1.53a1.4,1.4,0,0,1,.1,1.886c-.747,1.136-1.465,2.292-2.143,3.47a2.725,2.725,0,0,0-.381,1.282q-.033,11.13-.01,22.26a7.408,7.408,0,0,0,.138,1.606,5.637,5.637,0,0,0,5.883,4.407q18.452.008,36.9,0Zm-13.485-67.861h-6.99q-12.328,0-24.657,0a5.58,5.58,0,0,0-5.833,4.829,17.405,17.405,0,0,0-.073,2.536c-.008,1.426.344,1.778,1.759,1.779q8.938,0,17.876,0,6.819,0,13.638,0c1.424,0,1.75-.335,1.754-1.78,0-.051,0-.1,0-.154A9.018,9.018,0,0,1-2057.051-526.513Zm13.14,57.853c0,1.617-.055,3.151.012,4.679a5.762,5.762,0,0,0,5.2,5.307,5.492,5.492,0,0,0,5.9-4.515,26.352,26.352,0,0,0,.148-3.99c.012-1.05-.452-1.5-1.5-1.5-2.465,0-4.93.015-7.394.022C-2042.307-468.658-2043.071-468.66-2043.911-468.66Z" fill="#6836bf"/>
      <path id="Trazado_198699" data-name="Trazado 198699" d="M-2000.8-446.039c1.09-1.641,2.135-3.223,3.19-4.8.749-1.12,1.493-1.111,2.252.024,1.052,1.575,2.1,3.154,3.176,4.779,1.233-.929,2.424-1.817,3.6-2.719.446-.341.9-.636,1.475-.361s.621.825.62,1.383c0,2,.009,4.006-.009,6.008,0,.469.034.867.544,1.048a.619.619,0,0,1,.128.085c1.277.873,1.307,2.928.913,4.491-.309,1.225-1.429,1.877-2.943,1.878q-8.629.006-17.259,0a2.83,2.83,0,0,1-3.153-3.136c-.012-1.116-.115-2.357.922-3.024a1.986,1.986,0,0,0,.863-2.065c-.026-1.8-.042-3.6.018-5.391.014-.425.248-1.063.559-1.2a1.7,1.7,0,0,1,1.376.24C-2003.276-447.954-2002.092-447.006-2000.8-446.039Zm12.083,4.847v-4.743c-.957.717-1.817,1.363-2.679,2.005-1.059.789-1.516.711-2.245-.386-.934-1.407-1.865-2.815-2.849-4.3-.989,1.488-1.921,2.892-2.855,4.295-.734,1.1-1.2,1.184-2.244.4l-2.7-2.027v4.759Zm-7.8,4.813h8.164c1.458,0,1.466-.009,1.463-1.449,0-1.119-.046-1.163-1.185-1.164h-14.094c-1.052,0-2.1.01-3.157,0a.663.663,0,0,0-.772.734c-.006.257,0,.513,0,.77.007.97.142,1.109,1.113,1.11Q-2000.757-436.376-1996.521-436.379Z" transform="translate(-70.267 -61.154)" fill="#6836bf"/>
      <path id="Trazado_198700" data-name="Trazado 198700" d="M-2011.515-312.168h-14.024a4.4,4.4,0,0,1-.692-.017,1,1,0,0,1-.92-.976,1,1,0,0,1,.774-1.1,2.318,2.318,0,0,1,.685-.064q14.178,0,28.356,0c.278,0,.655-.037.811.119.294.292.659.735.623,1.075s-.492.68-.834.923c-.173.123-.5.036-.755.036Z" transform="translate(-55.272 -170.232)" fill="#6836bf"/>
      <path id="Trazado_198701" data-name="Trazado 198701" d="M-2011.527-285.428h14.023c.257,0,.581-.085.755.038.341.24.8.579.834.916a1.577,1.577,0,0,1-.626,1.068c-.209.177-.635.13-.964.13q-13.985.009-27.969,0h-.231c-.965-.013-1.464-.386-1.466-1.094s.473-1.062,1.466-1.062Q-2018.615-285.431-2011.527-285.428Z" transform="translate(-55.26 -193.159)" fill="#6836bf"/>
      <path id="Trazado_198702" data-name="Trazado 198702" d="M-2011.529-343.18h14.022c.256,0,.58-.08.755.043a2.169,2.169,0,0,1,.857.919.866.866,0,0,1-.7,1.1,3.441,3.441,0,0,1-.914.089q-13.983.007-27.967,0c-.077,0-.154,0-.231,0-.969-.018-1.466-.39-1.465-1.1s.47-1.06,1.47-1.06Q-2018.617-343.182-2011.529-343.18Z" transform="translate(-55.256 -147.297)" fill="#6836bf"/>
      <path id="Trazado_198703" data-name="Trazado 198703" d="M-2011.566-254.44h-13.946c-.257,0-.575.085-.757-.034a2.17,2.17,0,0,1-.9-.892.882.882,0,0,1,.674-1.127,2.71,2.71,0,0,1,.832-.1q14.1-.007,28.2,0a2.957,2.957,0,0,1,.763.063.987.987,0,0,1,.8,1.145.969.969,0,0,1-.952.933,6.707,6.707,0,0,1-.693.013Z" transform="translate(-55.225 -216.078)" fill="#6836bf"/>
    </g>
  </g>
</svg>
