<svg xmlns="http://www.w3.org/2000/svg" xmlns:xlink="http://www.w3.org/1999/xlink" width="190" height="112" viewBox="0 0 190 112">
  <defs>
    <linearGradient id="linear-gradient" x1="0.5" x2="0.5" y2="1" gradientUnits="objectBoundingBox">
      <stop offset="0" stop-color="#f7ca2e" stop-opacity="0"/>
      <stop offset="0.091" stop-color="#f7ca2e" stop-opacity="0.129"/>
      <stop offset="0.283" stop-color="#f7ca2e" stop-opacity="0.388"/>
      <stop offset="0.465" stop-color="#f7ca2e" stop-opacity="0.612"/>
      <stop offset="0.633" stop-color="#f7ca2e" stop-opacity="0.78"/>
      <stop offset="0.784" stop-color="#f7ca2e" stop-opacity="0.902"/>
      <stop offset="0.911" stop-color="#f7ca2e" stop-opacity="0.969"/>
      <stop offset="1" stop-color="#f7ca2e"/>
    </linearGradient>
    <linearGradient id="linear-gradient-2" x1="0.5" x2="0.5" y2="1" gradientUnits="objectBoundingBox">
      <stop offset="0" stop-color="#b13e8d" stop-opacity="0"/>
      <stop offset="0.091" stop-color="#b13e8d" stop-opacity="0.129"/>
      <stop offset="0.283" stop-color="#b13e8d" stop-opacity="0.388"/>
      <stop offset="0.465" stop-color="#b13e8d" stop-opacity="0.612"/>
      <stop offset="0.633" stop-color="#b13e8d" stop-opacity="0.78"/>
      <stop offset="0.784" stop-color="#b13e8d"/>
      <stop offset="0.911" stop-color="#b13e8d" stop-opacity="0.969"/>
      <stop offset="1" stop-color="#b13e8d"/>
    </linearGradient>
    <filter id="Trazado_197967" x="41" y="4" width="108" height="108" filterUnits="userSpaceOnUse">
      <feOffset dy="3" input="SourceAlpha"/>
      <feGaussianBlur stdDeviation="3" result="blur"/>
      <feFlood flood-opacity="0.161"/>
      <feComposite operator="in" in2="blur"/>
      <feComposite in="SourceGraphic"/>
    </filter>
  </defs>
  <g id="Grupo_137042" data-name="Grupo 137042" transform="translate(-180 -399)">
    <rect id="Rectángulo_40586" data-name="Rectángulo 40586" width="190" height="20" transform="translate(180 444)" fill="none"/>
    <g id="Grupo_108405" data-name="Grupo 108405" transform="translate(209.5 463)">
      <path id="Rectángulo_5242" data-name="Rectángulo 5242" d="M0,0H12a0,0,0,0,1,0,0V43.333a3,3,0,0,1-3,3H3a3,3,0,0,1-3-3V0A0,0,0,0,1,0,0Z" transform="translate(0 0)" fill="url(#linear-gradient)"/>
    </g>
    <g id="Grupo_108406" data-name="Grupo 108406" transform="translate(340 451) rotate(180)">
      <path id="Rectángulo_5242-2" data-name="Rectángulo 5242" d="M0,0H12a0,0,0,0,1,0,0V49a3,3,0,0,1-3,3H3a3,3,0,0,1-3-3V0A0,0,0,0,1,0,0Z" transform="translate(0 0)" fill="url(#linear-gradient-2)"/>
    </g>
    <g transform="matrix(1, 0, 0, 1, 180, 399)" filter="url(#Trazado_197967)">
      <path id="Trazado_197967-2" data-name="Trazado 197967" d="M10,0H80A10,10,0,0,1,90,10V90H10A10,10,0,0,1,0,80V10A10,10,0,0,1,10,0Z" transform="translate(50 10)" fill="#f6f6f6"/>
    </g>
    <g id="Grupo_138064" data-name="Grupo 138064" transform="translate(974.084 1013.38)">
      <path id="Trazado_198704" data-name="Trazado 198704" d="M-661.566-526.383c-.979,2.343-1.817,2.894-4.4,2.894q-22.6,0-45.209,0a3.566,3.566,0,0,1-3.8-2.675,10.972,10.972,0,0,1-.161-1.343c-.478,0-.981-.021-1.482,0a2.642,2.642,0,0,1-2.651-1.478c-.556-1.047-1.055-2.126-1.6-3.237l-2.611,2.821c-1.344,1.452-2.657,2.933-4.04,4.347a5.236,5.236,0,0,1-5.884,1.129,5.33,5.33,0,0,1-3.192-5.15,5.4,5.4,0,0,1,1.888-3.833q5.5-5.055,10.987-10.134,2.234-2.062,4.466-4.128c.09-.083.176-.17.268-.25a1.14,1.14,0,0,1,1.69-.069,1.086,1.086,0,0,1-.186,1.669c-1.228,1.153-2.471,2.292-3.71,3.435q-6.03,5.566-12.062,11.129a3.1,3.1,0,0,0-1.076,3.089,2.975,2.975,0,0,0,2.176,2.347,2.988,2.988,0,0,0,3.2-.9c1.605-1.709,3.188-3.439,4.778-5.162q7.6-8.237,15.205-16.476c.146-.158.279-.329.381-.45l-2.717-2.7c-.637.588-1.313,1.218-2,1.839s-1.331.656-1.8.132-.335-1.153.334-1.775c.233-.216.458-.441.7-.642a3.018,3.018,0,0,0,1.393-2.875c-.193-2.333,2.211-4,4.59-3.486a1.8,1.8,0,0,0,.714-.073c.075-.016.126-.141.189-.216l5.045-6.019c-2-.988-2.3-2.944-2.765-4.747a2.532,2.532,0,0,1,.8-2.271c.212-.235.434-.461.619-.657l-1.9-1.824a10.863,10.863,0,0,1-2.139.663,4.058,4.058,0,0,1-3.984-2.452,3.78,3.78,0,0,1,.888-4.365q6.676-6.691,13.367-13.368a3.784,3.784,0,0,1,5.278-.434,3.851,3.851,0,0,1,.9,5.459c-.038.06-.069.124-.121.219l1.986,1.825.524-.5a3.088,3.088,0,0,1,3.443-.715,17.522,17.522,0,0,1,2.091.869,4.539,4.539,0,0,1,1.218,1c.571.647,1.086,1.346,1.593,2.046a1.768,1.768,0,0,1,.451.941,1.246,1.246,0,0,1-.529.93,1.631,1.631,0,0,1-1.142-.058c-.3-.108-.512-.432-.691-.594L-699.485-565.4l4.854,4.853,17.247-17.233c-.206-.22-.474-.466-.694-.749a1.028,1.028,0,0,1,.047-1.46,1.011,1.011,0,0,1,1.454-.091c.308.236.547.561.851.8.449.358.929.678,1.394,1.016a2.332,2.332,0,0,1,.634.484,8.452,8.452,0,0,1,1.607,4.318,3.342,3.342,0,0,1-1.438,2.559l1.922,1.833a10.817,10.817,0,0,1,2.129-.663,4.041,4.041,0,0,1,3.985,2.443,3.755,3.755,0,0,1-.87,4.365q-5.869,5.893-11.763,11.759a4.452,4.452,0,0,1-.665.461l.143.268h.749c3.981,0,7.964.064,11.943-.025,2.186-.049,3.667.736,4.391,2.828v1.466a3.811,3.811,0,0,1-4.041,2.8.719.719,0,0,0-.526.38,25.28,25.28,0,0,0-1.269,3.177,18.04,18.04,0,0,0-.356,2.749,1.145,1.145,0,0,1-1.122,1.13,1.1,1.1,0,0,1-1.066-1.159c-.013-.408,0-.817,0-1.3h-13.43c-1.156,0-1.647-.319-1.66-1.073-.014-.781.5-1.125,1.688-1.125,4.4,0,8.793,0,13.189-.012.241,0,.625-.111.7-.278.349-.8.613-1.628.929-2.506h-10.727q-15.277,0-30.555,0c-.283,0-.669-.036-.83.124-.822.812-1.586,1.682-2.5,2.668h.972q9.306,0,18.612,0a3.231,3.231,0,0,1,.8.049,1.018,1.018,0,0,1,.827,1.067,1.03,1.03,0,0,1-.929,1.057,4.717,4.717,0,0,1-.8.023h-20.4a14.072,14.072,0,0,0,.906,6.669c.485,1.2.491,1.2,1.742,1.172.244,0,.489,0,.733,0h42.2c-.162-.38-.287-.637-.384-.9a1.11,1.11,0,0,1,.543-1.486,1.114,1.114,0,0,1,1.463.6c.2.389.405.78.58,1.181a1.046,1.046,0,0,0,1.017.638,6.388,6.388,0,0,1,2.078.561,3.649,3.649,0,0,1,1.616,2.258Zm-26.749-1.969h-22.567a7.4,7.4,0,0,0-.8.019,1.265,1.265,0,0,0-1.192,1.252,1.28,1.28,0,0,0,1.089,1.351,4.308,4.308,0,0,0,.8.042q22.64,0,45.28,0c1.3,0,1.951-.459,1.939-1.36-.012-.876-.635-1.3-1.906-1.3Zm-20.209-17.231h43.02a4.65,4.65,0,0,0,.512-.01,1.339,1.339,0,0,0,1.222-1.323A1.316,1.316,0,0,0-665-548.225c-.242-.023-.488-.014-.732-.014q-18.2,0-36.409.015a5.73,5.73,0,0,0-1.361.356c-.674.179-1.41.613-2.012.473-1.175-.273-1.75.325-2.351,1.079C-708.028-546.107-708.219-545.918-708.524-545.583Zm22.28-4.9a3.975,3.975,0,0,1,.4-4.206l-1.912-1.994c-.733.844-1.617,1.685-2.777,1.484-1.9-.327-3.843-.742-4.919-2.7a.609.609,0,0,0-.171.075q-3.005,2.51-6,5.031a.674.674,0,0,0-.24.474c.049.6.155,1.192.245,1.831Zm-6.275-40.129a2.189,2.189,0,0,0-1.169-1.984,1.627,1.627,0,0,0-1.982.482q-6.682,6.67-13.352,13.353a1.593,1.593,0,0,0-.044,2.5,1.6,1.6,0,0,0,2.555.019q6.712-6.692,13.4-13.411A4.133,4.133,0,0,0-692.519-590.607Zm8.062,38.047a2.023,2.023,0,0,0,1.193,1.95A1.5,1.5,0,0,0-681.4-551q1.814-1.808,3.624-3.62,4.916-4.916,9.829-9.834a1.607,1.607,0,0,0,.021-2.5,1.576,1.576,0,0,0-2.447-.087q-6.792,6.764-13.551,13.562A3.466,3.466,0,0,0-684.457-552.56Zm9.2-23.714-17.921,17.918c.775.3,1.613.681,2.486.938a1.142,1.142,0,0,0,.893-.339q7.588-7.541,15.13-15.128a1.212,1.212,0,0,0,.336-.962C-674.575-574.7-674.955-575.517-675.254-576.274Zm-8.546-8.541c-.61-.254-1.271-.491-1.9-.8a1.3,1.3,0,0,0-1.69.341c-2.069,2.11-4.171,4.188-6.26,6.277-2.832,2.832-5.67,5.658-8.486,8.507-.27.273-.618.746-.546,1.028a22.257,22.257,0,0,0,.959,2.576Zm-.43,28.343,10.8-10.8-1.734-1.749-10.807,10.808Zm-17.61-17.6,10.775-10.764-1.691-1.768-10.8,10.8Zm4.8,14.563-3.533-3.549-5.181,6.181,2.537,2.545Zm-6.7,8.616A3.868,3.868,0,0,0-704.2-552c-1.267-1.32-2.548-2.631-3.88-3.885a1.468,1.468,0,0,0-2.053.154,1.473,1.473,0,0,0-.08,2c1.243,1.31,2.525,2.585,3.828,3.836a1.252,1.252,0,0,0,1.628.167A6.072,6.072,0,0,0-703.743-550.89ZM-716.453-537c-.821.889-1.6,1.715-2.351,2.567a.631.631,0,0,0-.069.536c.479,1.268.972,2.532,1.5,3.781a.773.773,0,0,0,.55.388c.672.048,1.349.018,2.031.018-.4-1.225-.851-2.356-1.118-3.529C-716.182-534.434-716.269-535.671-716.453-537Z" transform="translate(0 0)" fill="#6836bf"/>
      <path id="Trazado_198705" data-name="Trazado 198705" d="M-571.169-289.6H-583.4a6.422,6.422,0,0,1-.732-.016,1.018,1.018,0,0,1-.977-1.008,1.022,1.022,0,0,1,.843-1.126,3.269,3.269,0,0,1,.8-.047q12.23,0,24.46,0c1.144,0,1.656.327,1.679,1.071.024.767-.513,1.127-1.686,1.127Z" transform="translate(-121.829 -243.796)" fill="#6836bf"/>
    </g>
  </g>
</svg>
