<svg xmlns="http://www.w3.org/2000/svg" xmlns:xlink="http://www.w3.org/1999/xlink" width="190" height="112" viewBox="0 0 190 112">
  <defs>
    <linearGradient id="linear-gradient" x1="0.5" x2="0.5" y2="1" gradientUnits="objectBoundingBox">
      <stop offset="0" stop-color="#f7ca2e" stop-opacity="0"/>
      <stop offset="0.091" stop-color="#f7ca2e" stop-opacity="0.129"/>
      <stop offset="0.283" stop-color="#f7ca2e" stop-opacity="0.388"/>
      <stop offset="0.465" stop-color="#f7ca2e" stop-opacity="0.612"/>
      <stop offset="0.633" stop-color="#f7ca2e" stop-opacity="0.78"/>
      <stop offset="0.784" stop-color="#f7ca2e" stop-opacity="0.902"/>
      <stop offset="0.911" stop-color="#f7ca2e" stop-opacity="0.969"/>
      <stop offset="1" stop-color="#f7ca2e"/>
    </linearGradient>
    <linearGradient id="linear-gradient-2" x1="0.5" x2="0.5" y2="1" gradientUnits="objectBoundingBox">
      <stop offset="0" stop-color="#b13e8d" stop-opacity="0"/>
      <stop offset="0.091" stop-color="#b13e8d" stop-opacity="0.129"/>
      <stop offset="0.283" stop-color="#b13e8d" stop-opacity="0.388"/>
      <stop offset="0.465" stop-color="#b13e8d" stop-opacity="0.612"/>
      <stop offset="0.633" stop-color="#b13e8d" stop-opacity="0.78"/>
      <stop offset="0.784" stop-color="#b13e8d"/>
      <stop offset="0.911" stop-color="#b13e8d" stop-opacity="0.969"/>
      <stop offset="1" stop-color="#b13e8d"/>
    </linearGradient>
    <filter id="Trazado_197967" x="41" y="4" width="108" height="108" filterUnits="userSpaceOnUse">
      <feOffset dy="3" input="SourceAlpha"/>
      <feGaussianBlur stdDeviation="3" result="blur"/>
      <feFlood flood-opacity="0.161"/>
      <feComposite operator="in" in2="blur"/>
      <feComposite in="SourceGraphic"/>
    </filter>
  </defs>
  <g id="Grupo_137984" data-name="Grupo 137984" transform="translate(-180 -399)">
    <rect id="Rectángulo_40586" data-name="Rectángulo 40586" width="190" height="20" transform="translate(180 444)" fill="none"/>
    <g id="Grupo_108405" data-name="Grupo 108405" transform="translate(209.5 463)">
      <path id="Rectángulo_5242" data-name="Rectángulo 5242" d="M0,0H12a0,0,0,0,1,0,0V43.333a3,3,0,0,1-3,3H3a3,3,0,0,1-3-3V0A0,0,0,0,1,0,0Z" transform="translate(0 0)" fill="url(#linear-gradient)"/>
    </g>
    <g id="Grupo_108406" data-name="Grupo 108406" transform="translate(340 451) rotate(180)">
      <path id="Rectángulo_5242-2" data-name="Rectángulo 5242" d="M0,0H12a0,0,0,0,1,0,0V49a3,3,0,0,1-3,3H3a3,3,0,0,1-3-3V0A0,0,0,0,1,0,0Z" transform="translate(0 0)" fill="url(#linear-gradient-2)"/>
    </g>
    <g transform="matrix(1, 0, 0, 1, 180, 399)" filter="url(#Trazado_197967)">
      <path id="Trazado_197967-2" data-name="Trazado 197967" d="M10,0H80A10,10,0,0,1,90,10V90H10A10,10,0,0,1,0,80V10A10,10,0,0,1,10,0Z" transform="translate(50 10)" fill="#f6f6f6"/>
    </g>
    <g id="Grupo_138065" data-name="Grupo 138065" transform="translate(1958.939 1187.533)">
      <path id="Trazado_198706" data-name="Trazado 198706" d="M-1582.106-673.375c-.182.879-.335,1.765-.551,2.635-.5,2.033-1.55,2.923-3.426,2.962a2.523,2.523,0,0,1-2.709-2.081,6.708,6.708,0,0,1-.154-1.711c.134-3.284.3-6.567.455-9.851.008-.165,0-.331,0-.559-.358.1-.685.215-1.019.293-2.255.522-4.1-.812-4.022-3.118a40.947,40.947,0,0,1,.718-6.275c.477-2.489,1.189-4.934,1.8-7.4a5.766,5.766,0,0,1,4.093-4.262,15.245,15.245,0,0,1,9.956.076,5.763,5.763,0,0,1,3.831,3.981,64.987,64.987,0,0,1,2.559,12.371,11.559,11.559,0,0,1,.038,1.582,3.119,3.119,0,0,1-4,3.062c-.346-.076-.681-.2-1.1-.33.1,1.928.193,3.813.282,5.7q.117,2.48.218,4.962a5.306,5.306,0,0,1-.015.647c-.133,1.63-.926,2.65-2.233,2.881a3.177,3.177,0,0,1-3.695-1.937,28.9,28.9,0,0,1-.818-3.193q-.055-.221-.109-.443Zm-4.025-8.928h.012c-.121,2.2-.254,4.409-.36,6.615-.076,1.582-.14,3.166-.148,4.75a1.033,1.033,0,0,0,.463.819.815.815,0,0,0,1.076-.581,6.517,6.517,0,0,0,.3-1.036c.525-3.219,1.032-6.44,1.554-9.659.142-.88.526-1.257,1.207-1.24.645.016,1.042.405,1.17,1.215.428,2.725.827,5.454,1.271,8.176a24.129,24.129,0,0,0,.6,2.586.768.768,0,0,0,1.027.542c.235-.084.375-.506.5-.8a1.4,1.4,0,0,0,.016-.571c-.114-2.47-.219-4.94-.351-7.409-.254-4.77-.527-9.539-.783-14.309-.051-.939.332-1.461,1.049-1.513s1.147.419,1.264,1.332c.322,2.5.618,5,1.037,7.48a3.809,3.809,0,0,0,.991,1.832c.5.535,1.2.249,1.335-.487a5.389,5.389,0,0,0,.034-1.5,62.807,62.807,0,0,0-2.5-12.021,3.4,3.4,0,0,0-2.169-2.332,12.819,12.819,0,0,0-8.943-.036,3.459,3.459,0,0,0-2.3,2.487c-.22.834-.492,1.655-.7,2.491a52,52,0,0,0-1.783,10.113c-.029.612-.034,1.289.728,1.451s1.109-.432,1.394-1a3.252,3.252,0,0,0,.259-.82c.13-.658.258-1.319.344-1.984.252-1.951.482-3.9.721-5.856a1.151,1.151,0,0,1,1.219-1.146,1.151,1.151,0,0,1,1.085,1.273c0,.216-.011.432-.023.648Q-1585.831-687.551-1586.131-682.3Z" transform="translate(-101.88 -53.079)" fill="#6836bf"/>
      <path id="Trazado_198707" data-name="Trazado 198707" d="M-1486.584-607.911c.181-2.372.364-4.618.517-6.866a4.936,4.936,0,0,1,1.06-3.14,3.931,3.931,0,0,1,3.985-1.425,2.72,2.72,0,0,1,2.141,2.655c.022,4.849.056,9.7-.034,14.548a5.371,5.371,0,0,1-.94,2.594c-1.314,2.06-2.7,4.078-4.166,6.037-2.5,3.345-5.063,6.641-7.624,9.938a4.358,4.358,0,0,0-1.053,3.313,15.723,15.723,0,0,1,.009,2.231,1.135,1.135,0,0,1-1.148,1.21,1.134,1.134,0,0,1-1.136-1.16,35.657,35.657,0,0,1,.029-4.03,4.018,4.018,0,0,1,.793-1.89c2.173-2.957,4.419-5.862,6.611-8.805,1.791-2.4,3.549-4.834,5.309-7.261a5.734,5.734,0,0,0,1.087-3.63c-.077-4.176-.027-8.354-.028-12.532,0-.978-.479-1.274-1.378-.851a2.084,2.084,0,0,0-1.182,1.916c-.105,1.46-.209,2.92-.324,4.38-.178,2.273-.305,4.552-.585,6.812a3.634,3.634,0,0,1-.944,1.941c-2.737,2.829-5.545,5.59-8.329,8.373a3.514,3.514,0,0,1-.313.3,1.122,1.122,0,0,1-1.564-.049,1.111,1.111,0,0,1-.052-1.561,7.416,7.416,0,0,1,.55-.569l7.739-7.742c.817-.818.935-1.485.394-2.2a2.011,2.011,0,0,0-2.532-.5,5.5,5.5,0,0,0-.908.7q-3.258,2.892-6.5,5.8a14.169,14.169,0,0,1-3.526,2.317,13,13,0,0,0-6.75,7.418,6.685,6.685,0,0,0,.1,4.456,21.147,21.147,0,0,1,.753,6.971c-.026.885-.476,1.425-1.192,1.4-.693-.023-1.141-.537-1.106-1.4a21.083,21.083,0,0,0-.8-6.818c-1.075-3.685.234-6.832,2.495-9.693a16.361,16.361,0,0,1,6.007-4.7,12.638,12.638,0,0,0,2.745-1.928c2.058-1.766,4.1-3.559,6.07-5.417C-1490.644-608.337-1488.844-608.931-1486.584-607.911Z" transform="translate(-169.338 -120.988)" fill="#6836bf"/>
      <path id="Trazado_198708" data-name="Trazado 198708" d="M-1711.933-607.952a4.726,4.726,0,0,1,5.63,1.05q3.33,3.08,6.777,6.033a11.074,11.074,0,0,0,2.406,1.535,15.884,15.884,0,0,1,8.116,8.752,8.473,8.473,0,0,1,.07,5.59,20.532,20.532,0,0,0-.753,6.681,2.464,2.464,0,0,1,0,.288,1.153,1.153,0,0,1-1.136,1.159,1.115,1.115,0,0,1-1.151-1.138c-.006-2.153-.193-4.321.543-6.419a16.979,16.979,0,0,0,.448-1.961,7,7,0,0,0-1.032-5.229,13.736,13.736,0,0,0-6.34-5.752,11.348,11.348,0,0,1-2.686-1.769c-2.386-2.048-4.711-4.166-7.053-6.265a2.351,2.351,0,0,0-2.084-.733,1.675,1.675,0,0,0-1.4,1.189,1.475,1.475,0,0,0,.493,1.606c2.665,2.631,5.3,5.288,7.953,7.938a4.97,4.97,0,0,1,.492.524,1.083,1.083,0,0,1-.071,1.5,1.1,1.1,0,0,1-1.559.077,4.591,4.591,0,0,1-.417-.4q-4.074-4.074-8.153-8.144a3.422,3.422,0,0,1-1.074-2.211q-.434-5.383-.844-10.767c-.1-1.326-.519-2.007-1.478-2.3-.764-.232-1.1,0-1.1.79,0,4.61-.031,9.221.03,13.83a3.82,3.82,0,0,0,.717,1.983c1.7,2.441,3.461,4.837,5.229,7.229,2.309,3.126,4.649,6.229,6.964,9.35a4.382,4.382,0,0,1,.886,3.036c-.066.884,0,1.776-.017,2.664-.012.842-.469,1.364-1.162,1.362s-1.13-.513-1.137-1.369c-.008-.984.051-1.973-.023-2.952a3.187,3.187,0,0,0-.47-1.6c-2.085-2.814-4.259-5.562-6.352-8.371q-2.859-3.836-5.6-7.756a7.745,7.745,0,0,1-1.4-4.8c.1-4.176.029-8.355.031-12.533a2.982,2.982,0,0,1,4.284-3,3.938,3.938,0,0,1,2.776,3.369c.263,2.288.39,4.591.576,6.887C-1711.989-608.68-1711.965-608.373-1711.933-607.952Z" transform="translate(0 -120.944)" fill="#6836bf"/>
      <path id="Trazado_198709" data-name="Trazado 198709" d="M-1479.385-697.258c.082,1.6.158,3.077.234,4.56.063,1.222.133,2.444.186,3.667a5.957,5.957,0,0,1-.042.932,2.56,2.56,0,0,1-2.051,2.532,3.016,3.016,0,0,1-3.394-1.709,25.721,25.721,0,0,1-.775-2.556c-.068.185-.125.315-.163.45a19.254,19.254,0,0,1-.578,2,3.037,3.037,0,0,1-3.745,1.723,2.617,2.617,0,0,1-1.727-2.83,1.05,1.05,0,0,1,1.047-.917,1.116,1.116,0,0,1,1.154.794c.118.283-.068.8.533.763.559-.037.7-.459.786-.887.426-2.212.832-4.428,1.244-6.642.088-.471.163-.945.257-1.415.163-.811.549-1.189,1.208-1.164.721.027,1.046.464,1.164,1.138q.62,3.542,1.271,7.078a5.14,5.14,0,0,0,.374,1.379c.12.238.5.346.76.512.12-.228.351-.459.344-.683q-.088-2.95-.252-5.9c-.227-3.953-.481-7.9-.716-11.857a1.173,1.173,0,0,1,1.034-1.392c.617-.06,1.108.359,1.261,1.121.367,1.833.693,3.674,1.091,5.5a6.117,6.117,0,0,0,.656,1.579c.1.188.5.415.611.353a.9.9,0,0,0,.414-.659,7.11,7.11,0,0,0-.2-1.706c-.786-3.138-1.6-6.267-2.405-9.4a2.362,2.362,0,0,0-1.624-1.695,11.4,11.4,0,0,0-7.683.033,4.531,4.531,0,0,0-1.13.747,1.147,1.147,0,0,1-1.619-.019,1.088,1.088,0,0,1,.078-1.654,8.3,8.3,0,0,1,2.38-1.413,13.854,13.854,0,0,1,8.291-.04,4.9,4.9,0,0,1,3.646,3.78c.806,3.427,1.689,6.836,2.512,10.259a4.558,4.558,0,0,1,.071,1.43,2.69,2.69,0,0,1-3.847,2.44Z" transform="translate(-183.715 -43.379)" fill="#6836bf"/>
      <path id="Trazado_198710" data-name="Trazado 198710" d="M-1660.949-697.273l-.37.154c-2.26.932-4.19-.279-4.091-2.723a23.506,23.506,0,0,1,.769-4.451c.54-2.261,1.242-4.483,1.772-6.745a5.047,5.047,0,0,1,3.851-3.945,13.853,13.853,0,0,1,8.087.089,8.33,8.33,0,0,1,2.386,1.4,1.094,1.094,0,0,1,.129,1.707,1.222,1.222,0,0,1-1.682-.028,5.874,5.874,0,0,0-1.671-.936,12.011,12.011,0,0,0-6.606-.027,2.833,2.833,0,0,0-2.24,2.251c-.767,3.29-1.639,6.555-2.443,9.837-.133.544-.332,1.35.3,1.54.729.217.963-.629,1.092-1.166.465-1.932.841-3.886,1.25-5.832,0-.023,0-.048.009-.071.166-1.042.622-1.538,1.339-1.457.747.084,1.059.629,1,1.694q-.489,8.484-.97,16.968a.926.926,0,0,0-.011.357c.109.277.255.54.386.809.275-.215.73-.385.8-.651.358-1.466.631-2.953.912-4.436.246-1.3.473-2.6.692-3.9a1.152,1.152,0,0,1,1.173-1.126c.64-.019,1.043.348,1.184,1.107.485,2.617.945,5.239,1.439,7.854.186.988.376,1.133,1.2,1.1.059-.213.116-.441.186-.665a1.094,1.094,0,0,1,1.25-.844,1.123,1.123,0,0,1,.976,1.222,2.568,2.568,0,0,1-1.838,2.55,2.955,2.955,0,0,1-3.386-1.266,16.6,16.6,0,0,1-.831-2.436,1,1,0,0,0-.224-.456c-.185.7-.339,1.412-.562,2.1a2.866,2.866,0,0,1-2.688,2.135,2.442,2.442,0,0,1-2.873-2.336,32.123,32.123,0,0,1,.033-3.81c.071-1.727.193-3.451.29-5.177C-1660.924-696.988-1660.94-697.1-1660.949-697.273Z" transform="translate(-43.829 -43.382)" fill="#6836bf"/>
      <path id="Trazado_198711" data-name="Trazado 198711" d="M-1558.047-763.889a5.043,5.043,0,0,1,1.784-4.017,4.255,4.255,0,0,1,5.919.139,5.453,5.453,0,0,1-.059,7.794c-3.135,2.8-6.767.363-7.437-2.428A14.71,14.71,0,0,1-1558.047-763.889Zm2.32-.019.04,0a5.633,5.633,0,0,0,0,.574,2.6,2.6,0,0,0,1.884,2.218,2.025,2.025,0,0,0,2.127-.866,3.035,3.035,0,0,0,.588-2.373,2.654,2.654,0,0,0-2.2-2.409,2.559,2.559,0,0,0-2.313,1.932A7.025,7.025,0,0,0-1555.727-763.909Z" transform="translate(-130.54 -0.18)" fill="#6836bf"/>
      <path id="Trazado_198712" data-name="Trazado 198712" d="M-1478.429-764.71a4.328,4.328,0,0,1,4.273-4.55,4.315,4.315,0,0,1,4.369,4.383,4.521,4.521,0,0,1-4.274,4.833A4.5,4.5,0,0,1-1478.429-764.71Zm6.341.141a2.206,2.206,0,0,0-2.067-2.379,2.264,2.264,0,0,0-1.977,2.544,2.026,2.026,0,0,0,2.034,2.058A2.036,2.036,0,0,0-1472.088-764.569Z" transform="translate(-194.84 0)" fill="#6836bf"/>
      <path id="Trazado_198713" data-name="Trazado 198713" d="M-1625.514-764.646a4.492,4.492,0,0,1-4.347,4.617,4.5,4.5,0,0,1-4.294-4.6,4.493,4.493,0,0,1,4.346-4.615A4.491,4.491,0,0,1-1625.514-764.646Zm-6.337.029a2.2,2.2,0,0,0,2.016,2.28,2.189,2.189,0,0,0,2.017-2.281,2.19,2.19,0,0,0-2.052-2.316A2.2,2.2,0,0,0-1631.852-764.618Z" transform="translate(-69.073 -0.015)" fill="#6836bf"/>
    </g>
  </g>
</svg>
