<svg xmlns="http://www.w3.org/2000/svg" xmlns:xlink="http://www.w3.org/1999/xlink" width="190" height="112" viewBox="0 0 190 112">
  <defs>
    <linearGradient id="linear-gradient" x1="0.5" x2="0.5" y2="1" gradientUnits="objectBoundingBox">
      <stop offset="0" stop-color="#f7ca2e" stop-opacity="0"/>
      <stop offset="0.091" stop-color="#f7ca2e" stop-opacity="0.129"/>
      <stop offset="0.283" stop-color="#f7ca2e" stop-opacity="0.388"/>
      <stop offset="0.465" stop-color="#f7ca2e" stop-opacity="0.612"/>
      <stop offset="0.633" stop-color="#f7ca2e" stop-opacity="0.78"/>
      <stop offset="0.784" stop-color="#f7ca2e" stop-opacity="0.902"/>
      <stop offset="0.911" stop-color="#f7ca2e" stop-opacity="0.969"/>
      <stop offset="1" stop-color="#f7ca2e"/>
    </linearGradient>
    <linearGradient id="linear-gradient-2" x1="0.5" x2="0.5" y2="1" gradientUnits="objectBoundingBox">
      <stop offset="0" stop-color="#b13e8d" stop-opacity="0"/>
      <stop offset="0.091" stop-color="#b13e8d" stop-opacity="0.129"/>
      <stop offset="0.283" stop-color="#b13e8d" stop-opacity="0.388"/>
      <stop offset="0.465" stop-color="#b13e8d" stop-opacity="0.612"/>
      <stop offset="0.633" stop-color="#b13e8d" stop-opacity="0.78"/>
      <stop offset="0.784" stop-color="#b13e8d"/>
      <stop offset="0.911" stop-color="#b13e8d" stop-opacity="0.969"/>
      <stop offset="1" stop-color="#b13e8d"/>
    </linearGradient>
    <filter id="Trazado_197967" x="41" y="4" width="108" height="108" filterUnits="userSpaceOnUse">
      <feOffset dy="3" input="SourceAlpha"/>
      <feGaussianBlur stdDeviation="3" result="blur"/>
      <feFlood flood-opacity="0.161"/>
      <feComposite operator="in" in2="blur"/>
      <feComposite in="SourceGraphic"/>
    </filter>
  </defs>
  <g id="Grupo_137984" data-name="Grupo 137984" transform="translate(-180 -399)">
    <rect id="Rectángulo_40586" data-name="Rectángulo 40586" width="190" height="20" transform="translate(180 444)" fill="none"/>
    <g id="Grupo_108405" data-name="Grupo 108405" transform="translate(209.5 463)">
      <path id="Rectángulo_5242" data-name="Rectángulo 5242" d="M0,0H12a0,0,0,0,1,0,0V43.333a3,3,0,0,1-3,3H3a3,3,0,0,1-3-3V0A0,0,0,0,1,0,0Z" transform="translate(0 0)" fill="url(#linear-gradient)"/>
    </g>
    <g id="Grupo_108406" data-name="Grupo 108406" transform="translate(340 451) rotate(180)">
      <path id="Rectángulo_5242-2" data-name="Rectángulo 5242" d="M0,0H12a0,0,0,0,1,0,0V49a3,3,0,0,1-3,3H3a3,3,0,0,1-3-3V0A0,0,0,0,1,0,0Z" transform="translate(0 0)" fill="url(#linear-gradient-2)"/>
    </g>
    <g transform="matrix(1, 0, 0, 1, 180, 399)" filter="url(#Trazado_197967)">
      <path id="Trazado_197967-2" data-name="Trazado 197967" d="M10,0H80A10,10,0,0,1,90,10V90H10A10,10,0,0,1,0,80V10A10,10,0,0,1,10,0Z" transform="translate(50 10)" fill="#f6f6f6"/>
    </g>
    <g id="Grupo_138066" data-name="Grupo 138066" transform="translate(2540.45 -441.983)">
      <path id="Trazado_198714" data-name="Trazado 198714" d="M-2300.7,865.983c.083-.308.163-.617.248-.924a5.634,5.634,0,0,1,5.37-4.166c1.951-.025,3.9-.012,5.855,0,.744,0,1.2.413,1.2,1.031s-.461,1.015-1.206,1.031c-.528.011-1.055.009-1.583.017-.041,0-.08.034-.2.086v.774q0,9.919,0,19.838c0,1.059-.329,1.56-1.02,1.563s-1.045-.516-1.045-1.554q0-9.919,0-19.838v-.818a16.623,16.623,0,0,0-2.586.023,3.525,3.525,0,0,0-2.937,3.423c-.013.229-.007.459-.007.689q0,27.76,0,55.519v.864h5.531v-.89q0-16.808,0-33.615a4.351,4.351,0,0,1,.041-.823.951.951,0,0,1,1.073-.851.945.945,0,0,1,.933.929c.026.273.017.55.017.826q0,16.773,0,33.546v.872h43.859a2.06,2.06,0,0,0-.763-2.289c-2.306-1.7-4.513-3.543-6.76-5.327-.122-.1-.249-.188-.41-.309a4.143,4.143,0,0,1-4.287,1.589c-1.73-.348-2.521-1.8-3.413-3.012-1.352.456-2.626.976-3.947,1.317a17.691,17.691,0,0,1-21.574-13.767,17.675,17.675,0,0,1,14.856-20.972,17.687,17.687,0,0,1,19.869,14.119,32.684,32.684,0,0,1,.348,3.624c.026.409.1.646.548.685a8.1,8.1,0,0,1,1.012.194c3.053.668,4.341,3.185,3.065,6.127l1.484.746v-43.3h-37.164c-1.113,0-1.618-.329-1.61-1.045s.505-1.021,1.633-1.021h36.99c1.662,0,2.244.575,2.244,2.221q0,21.663-.016,43.327a1.225,1.225,0,0,0,.781,1.308c3.534,1.75,7.044,3.548,10.559,5.337a5.778,5.778,0,0,1,2.407,8.744q-.887,1.394-1.785,2.78a5.8,5.8,0,0,1-8.867,1.426c-.982-.781-1.966-1.56-3.037-2.41-.1,2.132-1.567,2.1-3.086,2.031,0,1.146-.041,2.22.011,3.29a2.276,2.276,0,0,1-1.522,2.485h-7.715c-.472-.338-.856-.73-.623-1.371s.761-.709,1.351-.7c1.24.017,2.48.005,3.72.005h2.673v-3.664h-48.4a3.757,3.757,0,0,0,0,.436,3.621,3.621,0,0,0,3.811,3.227q16.6,0,33.2,0c.579,0,1.118.035,1.372.666s-.138,1.028-.555,1.4h-35.132c-.168-.058-.334-.123-.5-.172a5.671,5.671,0,0,1-4-3.738c-.137-.385-.216-.791-.321-1.187Zm45.421,32.31a15.649,15.649,0,0,0-15.7-15.64,15.656,15.656,0,0,0-15.61,15.66,15.634,15.634,0,0,0,15.7,15.631A15.632,15.632,0,0,0-2255.282,898.293Zm1.345,15.491a1.708,1.708,0,0,0,.152.185c4.471,3.559,8.927,7.137,13.421,10.665a3.641,3.641,0,0,0,5.368-.9c.66-.965,1.273-1.963,1.9-2.948,1.529-2.386.927-4.609-1.6-5.89q-6.163-3.127-12.329-6.25l-2.73-1.383Zm-7.125-.748c.3.412.563.784.835,1.151a2.036,2.036,0,0,0,3.644-.114c1.108-1.713,2.2-3.434,3.306-5.151.916-1.428,1.846-2.847,2.743-4.287a2,2,0,0,0-1.326-3.175c-.5-.12-1.018-.2-1.576-.31a18.156,18.156,0,0,1-2.595,6.733A18.04,18.04,0,0,1-2261.062,913.036Z" fill="#6836bf"/>
      <path id="Trazado_198715" data-name="Trazado 198715" d="M-2182.779,898.153h10.6a4.665,4.665,0,0,1,.687.023.925.925,0,0,1,.859.917.92.92,0,0,1-.7,1.043,3.015,3.015,0,0,1-.815.079q-10.669.006-21.338,0a2.916,2.916,0,0,1-.814-.082.929.929,0,0,1-.708-1.045.946.946,0,0,1,.875-.913,5.332,5.332,0,0,1,.687-.022Z" transform="translate(-86.235 -30.414)" fill="#6836bf"/>
      <path id="Trazado_198716" data-name="Trazado 198716" d="M-2158.329,929.355c-1.719,0-3.439,0-5.158,0-.272,0-.629.043-.8-.1a1.881,1.881,0,0,1-.675-.989.865.865,0,0,1,.812-.942,2.742,2.742,0,0,1,.48-.026q5.365,0,10.729,0c.092,0,.183,0,.275,0a.984.984,0,0,1,1.044.96.986.986,0,0,1-1,1.078c-.616.045-1.237.021-1.856.022Q-2156.4,929.357-2158.329,929.355Z" transform="translate(-110.752 -54.187)" fill="#6836bf"/>
      <path id="Trazado_198717" data-name="Trazado 198717" d="M-2182.18,1008.34a12.578,12.578,0,0,1-12.628,12.573,12.569,12.569,0,0,1-12.54-12.655,12.582,12.582,0,0,1,12.656-12.546A12.6,12.6,0,0,1-2182.18,1008.34Zm-23.112-.034a10.516,10.516,0,0,0,10.477,10.54,10.51,10.51,0,0,0,10.569-10.517,10.528,10.528,0,0,0-10.475-10.551A10.539,10.539,0,0,0-2205.292,1008.306Z" transform="translate(-76.173 -110.017)" fill="#6836bf"/>
      <path id="Trazado_198718" data-name="Trazado 198718" d="M-1986.365,1159.033a5.249,5.249,0,0,1,.726.3c1.389.881,2.778,1.763,4.154,2.667a1.009,1.009,0,0,1,.376,1.475,1.015,1.015,0,0,1-1.5.238c-1.374-.863-2.733-1.749-4.1-2.624a.945.945,0,0,1-.474-1.225C-1987.026,1159.517-1986.63,1159.288-1986.365,1159.033Z" transform="translate(-255.744 -243.279)" fill="#6836bf"/>
    </g>
  </g>
</svg>
